<svg width="398" height="890" viewBox="0 0 398 890" fill="none" xmlns="http://www.w3.org/2000/svg">
<path d="M373.653 850.333C371.623 851.283 369.793 852.793 367.683 853.393C359.523 855.703 351.183 856.663 342.733 855.423C330.003 853.543 319.333 847.763 310.533 838.373C297.533 824.493 293.813 808.423 298.853 790.223C303.203 774.493 313.683 763.333 326.363 753.943C334.103 748.203 343.153 744.953 351.953 741.273C361.873 737.133 372.063 734.143 382.973 734.463C383.553 734.483 384.193 734.363 384.723 734.123C386.043 733.523 386.633 732.443 385.633 731.243C383.823 729.083 382.043 726.813 379.873 725.043C375.133 721.173 369.423 719.083 363.643 717.453C347.803 712.963 331.763 713.653 315.893 716.923C297.103 720.793 280.983 730.053 267.253 743.383C246.713 763.333 237.023 787.883 236.493 816.723C236.733 819.473 236.953 822.613 237.303 825.753C238.633 837.903 242.833 849.043 250.233 858.703C258.573 869.573 269.273 877.553 282.123 882.593C298.083 888.863 314.473 891.963 331.513 888.683C343.153 886.443 353.623 881.423 362.203 873.043C368.243 867.143 372.423 859.903 376.263 852.473C376.583 851.843 376.203 850.853 376.143 850.023C375.313 850.123 374.393 850.023 373.673 850.353L373.653 850.333Z" fill="#C8FAFD"/>
<path d="M367.123 823.513C367.193 822.613 367.313 821.373 366.813 820.853C366.323 820.333 365.053 820.323 364.183 820.463C363.183 820.623 362.253 821.203 361.013 821.713C360.273 819.923 359.763 818.343 358.973 816.913C358.603 816.243 357.643 815.453 357.013 815.503C356.413 815.553 355.783 816.553 355.363 817.253C355.083 817.733 355.013 818.433 355.063 819.003C355.433 822.663 354.703 825.503 350.393 826.203C349.823 826.293 349.093 827.493 349.063 828.203C349.043 828.723 349.983 829.393 350.613 829.803C351.083 830.113 351.763 830.123 352.343 830.233C353.853 830.533 354.503 831.333 354.223 832.943C354.013 834.113 353.833 835.373 354.053 836.513C354.243 837.463 354.983 838.973 355.573 839.023C356.523 839.103 357.743 838.363 358.503 837.623C359.363 836.783 359.843 835.563 360.543 834.433C361.313 835.013 361.813 835.473 362.393 835.803C363.603 836.493 364.603 838.453 366.233 837.133C367.883 835.793 366.563 834.113 365.843 832.863C364.263 830.093 363.953 827.583 366.293 825.093C366.693 824.673 367.053 824.063 367.103 823.513H367.123Z" fill="#C8FAFD"/>
<path d="M394.723 845.503C392.893 845.703 392.253 845.033 392.143 843.383C392.113 842.873 391.993 842.273 391.693 841.893C391.223 841.293 390.573 840.463 389.963 840.423C389.343 840.383 388.443 841.053 388.073 841.653C387.493 842.593 387.173 843.713 386.903 844.803C386.503 846.463 385.643 847.333 383.853 847.543C382.963 847.643 381.553 848.403 381.463 849.023C381.333 849.863 382.043 851.083 382.763 851.733C383.883 852.743 384.223 853.653 383.663 855.073C383.173 856.323 382.893 857.653 382.423 859.303C382.803 859.943 383.113 861.103 383.793 861.403C384.453 861.693 385.563 861.233 386.363 860.863C387.013 860.563 387.543 859.943 388.073 859.423C388.923 858.583 389.483 858.843 390.313 859.613C391.033 860.283 392.143 860.543 393.083 860.983C393.343 860.033 393.903 859.043 393.803 858.133C393.463 855.163 393.793 852.503 396.143 850.383C396.523 850.043 396.773 849.533 396.993 849.063C397.953 846.963 396.973 845.283 394.723 845.533V845.503Z" fill="#C8FAFD"/>
<path d="M384.153 824.013C384.213 822.583 383.443 821.623 381.293 821.253C380.583 822.193 379.443 823.063 379.273 824.093C379.043 825.513 379.983 826.663 381.663 826.633C383.313 826.603 384.083 825.473 384.143 824.023L384.153 824.013Z" fill="#C8FAFD"/>
<path d="M387.233 821.763C389.183 821.473 390.753 821.203 390.413 819.403C390.263 818.583 389.113 817.943 388.423 817.223C387.603 818.233 386.663 819.183 386.053 820.303C385.923 820.543 386.953 821.423 387.233 821.763Z" fill="#C8FAFD"/>
<path d="M386.323 827.643C385.503 827.823 384.873 828.903 384.163 829.603C384.853 830.233 385.543 831.363 386.233 831.363C387.053 831.373 387.883 830.413 388.703 829.873C388.683 829.563 388.663 829.253 388.653 828.943C387.863 828.463 386.973 827.503 386.313 827.643H386.323Z" fill="#C8FAFD"/>
<path d="M341.943 847.783C343.163 848.693 343.943 849.683 344.473 849.563C345.263 849.383 346.273 848.503 346.423 847.753C346.533 847.243 345.383 845.973 344.743 845.933C344.033 845.883 343.253 846.853 341.953 847.773L341.943 847.783Z" fill="#C8FAFD"/>
<path d="M373.833 872.453C373.383 872.333 372.053 873.533 372.103 874.033C372.193 874.893 373.063 875.663 374.033 877.103C374.953 875.693 375.913 874.853 375.763 874.313C375.553 873.533 374.613 872.663 373.823 872.453H373.833Z" fill="#C8FAFD"/>
<path d="M322.546 121.736C319.176 126.526 316.186 131.166 312.806 135.506C309.076 140.286 305.026 144.816 301.026 149.386C300.236 150.286 299.146 151.046 298.046 151.536C294.856 152.956 291.666 151.066 291.836 147.596C292.036 143.346 292.636 139.096 293.336 134.886C294.736 126.516 296.316 118.186 297.856 109.836C298.126 108.366 297.856 107.426 296.366 106.726C288.856 103.196 281.336 99.6764 273.926 95.9364C271.086 94.4964 268.296 92.7364 265.916 90.6264C262.206 87.3264 263.206 83.0864 267.996 81.7564C271.736 80.7164 275.616 80.0964 279.476 79.6464C287.226 78.7464 294.996 78.0564 302.766 77.3564C304.206 77.2264 304.216 76.2364 304.436 75.3164C306.326 67.2964 308.106 59.2464 310.106 51.2564C311.336 46.3364 312.836 41.4764 314.296 36.6164C314.946 34.4464 316.386 32.8164 318.746 32.6664C321.046 32.5264 322.586 34.0464 323.476 35.9964C325.406 40.2164 327.416 44.4264 328.996 48.7864C331.796 56.5364 334.296 64.3864 336.936 72.1964C337.076 72.6064 337.236 72.9964 337.456 73.5664C340.596 72.5064 343.656 71.3664 346.786 70.4564C354.156 68.3064 361.546 66.2464 368.946 64.2164C369.936 63.9464 371.046 64.0064 372.096 64.0764C374.566 64.2564 376.356 66.5664 375.946 69.0264C375.396 72.3364 373.626 75.0364 371.346 77.3764C364.156 84.7364 356.876 92.0064 349.686 99.3564C346.056 103.066 346.176 103.096 347.476 108.156C350.576 120.206 353.586 132.276 356.656 144.336C357.046 145.876 356.836 147.346 355.566 148.196C353.706 149.446 351.596 150.456 349.316 149.206C348.246 148.616 347.186 147.886 346.356 146.996C338.946 139.166 331.596 131.286 324.226 123.416C323.726 122.886 323.206 122.376 322.556 121.706L322.546 121.736ZM361.816 75.8964C361.756 73.9964 360.576 73.4864 358.926 74.4264C350.806 79.0364 342.726 83.6964 334.626 88.3264C333.596 88.9164 333.426 89.7464 333.986 90.6564C334.626 91.6764 335.536 91.4464 336.426 90.9364C344.526 86.2964 352.636 81.6764 360.716 77.0164C361.236 76.7164 361.586 76.1364 361.816 75.8964ZM313.626 103.996C313.236 103.586 312.756 102.686 312.316 102.706C311.686 102.736 310.746 103.306 310.526 103.876C309.816 105.776 309.426 107.796 308.826 109.736C306.666 116.636 304.506 123.526 302.266 130.396C301.856 131.656 302.106 132.656 303.226 132.916C303.786 133.046 304.626 132.116 305.286 131.596C305.496 131.436 305.536 131.046 305.626 130.746C307.916 123.376 310.226 116.016 312.486 108.636C312.916 107.226 313.196 105.766 313.616 103.996H313.626ZM330.386 104.976C330.716 106.006 330.916 106.716 331.176 107.406C331.876 109.246 332.686 111.056 333.316 112.926C335.026 118.006 336.606 123.136 338.386 128.196C338.636 128.916 339.816 129.896 340.376 129.786C341.456 129.586 341.836 128.596 341.396 127.306C339.416 121.536 337.566 115.716 335.606 109.936C335.016 108.186 334.326 106.446 333.466 104.826C333.176 104.286 332.226 103.896 331.546 103.836C331.176 103.806 330.736 104.616 330.376 104.986L330.386 104.976ZM316.926 69.1764C316.926 69.1764 316.986 69.1764 317.016 69.1764C317.036 70.7264 317.026 72.2764 317.106 73.8164C317.136 74.4164 317.196 75.1164 317.526 75.5764C317.866 76.0564 318.816 76.6964 319.026 76.5564C319.616 76.1564 320.346 75.4064 320.356 74.7864C320.436 70.8564 320.316 66.9164 320.296 62.9764C320.296 62.1164 320.476 61.2664 320.516 60.4064C320.646 57.3864 320.776 54.3664 320.816 51.3464C320.816 50.8964 320.406 50.1064 320.106 50.0564C319.526 49.9764 318.716 50.1464 318.306 50.5264C317.866 50.9364 317.596 51.7164 317.566 52.3464C317.316 57.9564 317.136 63.5664 316.936 69.1764H316.926ZM300.466 92.2564C302.586 92.2764 303.716 91.2564 302.986 90.2564C302.516 89.6064 301.526 89.1264 300.696 88.9764C297.666 88.4364 294.616 88.0464 291.556 87.6464C287.826 87.1564 284.106 86.6664 280.366 86.2964C279.816 86.2464 279.186 86.8664 278.596 87.1764C278.996 87.8464 279.276 88.6864 279.846 89.1464C280.306 89.5164 281.126 89.4764 281.796 89.5664C284.116 89.8664 286.446 90.1064 288.766 90.4464C292.786 91.0364 296.796 91.6864 300.446 92.2564H300.466Z" fill="#FFD686"/>
<path d="M318.876 19.6164C317.876 20.8864 317.076 22.0664 316.106 23.0864C315.016 24.2264 313.636 23.8564 313.356 22.3064C313.156 21.1864 313.246 19.9564 313.486 18.8264C313.896 16.9164 313.616 15.5464 311.476 15.0364C311.006 14.9264 310.556 14.6564 310.166 14.3664C308.906 13.4264 308.906 12.0464 310.176 11.1264C310.826 10.6564 311.536 10.1864 312.296 9.98638C314.626 9.35638 315.226 7.66639 315.396 5.54639C315.496 4.25639 315.656 2.92638 316.106 1.73638C316.386 1.00638 317.206 0.126388 317.906 0.00638821C318.436 -0.0836118 319.336 0.796383 319.746 1.44638C320.226 2.20638 320.406 3.17639 320.636 4.06639C320.906 5.12639 321.446 5.47639 322.526 5.13639C323.156 4.93639 323.876 4.85638 324.536 4.91638C326.056 5.04638 326.806 6.28639 326.286 7.70639C326.136 8.10639 325.936 8.53639 325.636 8.82639C323.446 10.9464 323.696 13.5064 324.186 16.1564C324.406 17.3664 324.626 18.6464 324.446 19.8364C324.306 20.7464 323.736 21.9464 322.996 22.3064C322.446 22.5764 321.276 21.8264 320.506 21.3364C319.876 20.9264 319.426 20.2264 318.876 19.6264V19.6164Z" fill="#FFD686"/>
<path d="M288.346 60.0964C288.096 61.3464 288.026 62.3264 287.686 63.2064C287.446 63.8164 286.856 64.6964 286.406 64.7064C285.786 64.7264 284.866 64.1764 284.576 63.6164C284.106 62.7164 283.956 61.6164 283.836 60.5764C283.676 59.2064 282.976 58.6564 281.646 58.5864C280.276 58.5164 278.556 58.8764 278.026 57.0864C277.536 55.4164 278.876 54.3664 280.056 53.6764C282.316 52.3364 282.386 50.5064 281.876 48.2964C281.566 46.9164 281.366 45.4664 281.416 44.0664C281.446 43.3664 282.066 42.2064 282.566 42.1264C283.276 42.0064 284.386 42.4864 284.846 43.0764C285.806 44.3164 286.446 45.8064 287.336 47.3964C288.156 46.6764 288.706 45.9364 289.446 45.6064C290.196 45.2764 291.406 44.9764 291.906 45.3464C292.436 45.7464 292.666 46.9964 292.516 47.7764C292.266 49.0964 291.686 50.3664 291.106 51.5964C290.556 52.7564 290.746 53.6864 291.436 54.7064C292.376 56.0864 293.306 57.4864 294.016 58.9964C294.316 59.6464 294.346 60.9764 293.946 61.2864C293.356 61.7364 292.226 61.7764 291.426 61.5864C290.456 61.3664 289.576 60.7164 288.376 60.1164L288.346 60.0964Z" fill="#FFD686"/>
<path d="M351.996 41.3964C353.026 41.1964 353.816 40.8764 354.586 40.9264C355.386 40.9764 356.556 41.1664 356.836 41.6864C357.176 42.3164 357.006 43.5164 356.596 44.1864C355.906 45.3264 354.916 46.3264 353.926 47.2564C352.926 48.1964 352.566 49.2364 352.776 50.5764C352.996 51.9764 353.206 53.3964 353.186 54.8064C353.186 55.4064 352.696 56.2964 352.196 56.5064C351.676 56.7264 350.736 56.4764 350.236 56.0964C349.526 55.5664 349.036 54.7164 348.286 53.7964C347.306 54.9464 346.706 55.8164 345.946 56.4764C345.416 56.9364 344.466 57.5064 344.036 57.3064C343.496 57.0564 343.006 56.0664 343.016 55.4064C343.036 54.3264 343.406 53.2164 343.766 52.1764C344.116 51.1764 343.856 50.6364 342.996 50.0264C341.886 49.2464 340.206 48.7464 340.386 46.9664C340.586 45.0664 342.376 44.6364 343.776 44.2164C345.536 43.6964 346.246 42.6764 346.496 40.9764C346.706 39.5764 346.996 38.1464 347.556 36.8564C347.866 36.1564 348.816 35.2964 349.466 35.3064C350.106 35.3164 351.046 36.2364 351.286 36.9464C351.726 38.2564 351.756 39.7164 351.996 41.3864V41.3964Z" fill="#FFD686"/>
<path d="M361.826 75.8964C361.596 76.1364 361.246 76.7164 360.726 77.0164C352.636 81.6764 344.536 86.3064 336.436 90.9364C335.546 91.4464 334.636 91.6764 333.996 90.6564C333.426 89.7464 333.606 88.9164 334.636 88.3264C342.736 83.6964 350.826 79.0364 358.936 74.4264C360.586 73.4864 361.766 73.9964 361.826 75.8964Z" fill="#B8943D"/>
<path d="M313.636 103.996C313.206 105.766 312.936 107.226 312.506 108.636C310.246 116.016 307.936 123.376 305.646 130.746C305.556 131.036 305.516 131.426 305.306 131.596C304.646 132.116 303.806 133.046 303.246 132.916C302.126 132.646 301.876 131.646 302.286 130.396C304.526 123.526 306.696 116.636 308.846 109.736C309.456 107.796 309.846 105.776 310.546 103.876C310.756 103.306 311.696 102.736 312.336 102.706C312.776 102.686 313.256 103.586 313.646 103.996H313.636Z" fill="#B8943D"/>
<path d="M330.396 104.976C330.756 104.606 331.196 103.796 331.566 103.826C332.246 103.886 333.196 104.276 333.486 104.816C334.346 106.446 335.036 108.176 335.626 109.926C337.586 115.706 339.436 121.526 341.416 127.296C341.856 128.576 341.476 129.576 340.396 129.776C339.826 129.886 338.656 128.896 338.406 128.186C336.626 123.126 335.046 117.996 333.336 112.916C332.706 111.046 331.896 109.236 331.196 107.396C330.936 106.706 330.736 105.996 330.406 104.966L330.396 104.976Z" fill="#B8943D"/>
<path d="M316.936 69.1864C317.136 63.5764 317.316 57.9664 317.566 52.3564C317.596 51.7264 317.866 50.9464 318.306 50.5364C318.716 50.1464 319.526 49.9864 320.106 50.0664C320.406 50.1064 320.826 50.9064 320.816 51.3564C320.776 54.3764 320.636 57.3964 320.516 60.4164C320.476 61.2764 320.296 62.1264 320.296 62.9864C320.316 66.9264 320.426 70.8564 320.356 74.7964C320.346 75.4164 319.616 76.1664 319.026 76.5664C318.816 76.7064 317.866 76.0664 317.526 75.5864C317.196 75.1264 317.136 74.4264 317.106 73.8264C317.036 72.2764 317.046 70.7364 317.016 69.1864C316.986 69.1864 316.956 69.1864 316.926 69.1864H316.936Z" fill="#B8943D"/>
<path d="M300.476 92.2564C296.826 91.6864 292.816 91.0364 288.796 90.4464C286.476 90.1064 284.146 89.8664 281.826 89.5664C281.156 89.4764 280.336 89.5163 279.876 89.1463C279.306 88.6863 279.026 87.8464 278.626 87.1764C279.216 86.8664 279.836 86.2364 280.396 86.2964C284.136 86.6664 287.856 87.1563 291.586 87.6463C294.636 88.0463 297.696 88.4364 300.726 88.9764C301.556 89.1264 302.546 89.6064 303.016 90.2564C303.736 91.2664 302.616 92.2764 300.496 92.2564H300.476Z" fill="#B8943D"/>
<path d="M68.2109 486.382C26.4879 486.382 5.26105 479.47 1.41606 464.63C-1.71396 452.571 0.383311 441.02 7.32654 432.075C13.3165 424.337 22.357 419.539 30.9049 419.539C33.3835 419.539 35.7191 419.936 37.8799 420.731C44.7119 408.211 55.5319 393.975 69.4819 393.975C71.0867 393.975 72.7073 394.165 74.312 394.547C80.6038 374.4 94.8398 368.077 114.843 377.054C121.945 380.247 128.078 383.393 133.115 386.428C138.136 374.416 149.003 362.277 165.464 362.277C169.96 362.277 174.695 363.183 179.541 364.978C191.425 369.364 200.275 376.084 205.201 384.458C210.984 384.283 216.847 387.174 222.503 393.101C233.72 404.858 242.316 418.125 246.352 429.819C249.482 428.341 252.755 427.563 255.932 427.563C261.652 427.563 266.863 429.946 271.423 434.665C278.923 442.387 278.589 448.79 276.984 452.794C271.487 466.569 242.03 475.911 198.194 477.786C184.879 478.358 168.498 479.804 151.148 481.345C124.392 483.712 94.0772 486.397 68.2109 486.397V486.382ZM30.9049 422.923C23.3738 422.923 15.3661 427.229 10.0117 434.141C3.73576 442.244 1.84504 452.762 4.70495 463.772C8.07329 476.706 28.8394 482.997 68.2109 482.982C93.9342 482.982 124.17 480.312 150.846 477.945C168.244 476.404 184.657 474.958 198.051 474.386C239.869 472.59 268.913 463.836 273.823 451.522C275.602 447.058 273.981 442.164 268.977 437.016C262.764 430.613 254.947 429.31 247.368 433.092C249.354 440.242 249.116 445.707 246.685 448.996C245.001 451.268 242.395 452.365 238.963 452.047C234.594 451.665 233.387 449.076 233.037 447.566C231.988 442.831 236.532 435.841 243.317 431.503C239.551 420.254 230.924 406.892 220.024 395.452C215.623 390.845 211.238 388.303 206.932 387.905C210.65 396.437 210.38 406.193 206.09 413.406C203.119 418.395 198.734 421.255 194.063 421.255C193.316 421.255 192.569 421.176 191.807 421.033C186.881 420.048 184.101 415.583 184.403 409.069C184.863 399.234 191.838 387.683 201.514 385.03C196.859 377.864 188.899 372.065 178.317 368.172C173.837 366.52 169.499 365.693 165.416 365.693C150.386 365.693 140.487 377.133 135.991 388.287C148.765 396.66 150.465 402.586 149.607 406.129C148.654 410.006 144.284 412.564 137.611 413.136C137.405 413.152 137.198 413.168 136.992 413.168C134.863 413.168 133.051 412.199 131.78 410.387C128.968 406.384 129.032 398.185 131.876 389.701C126.871 386.634 120.674 383.425 113.429 380.184C95.3641 372.081 83.2572 377.228 77.5215 395.611C79.857 396.533 82.1926 397.851 84.4965 399.552C97.1754 408.91 97.8427 416.886 96.1744 421.938C93.7912 429.152 85.0526 433.982 78.3794 433.982C73.8989 433.982 70.9913 431.71 70.7848 428.055C70.5623 424.067 70.1492 410.515 73.3587 397.851C72.0558 397.55 70.7371 397.407 69.4501 397.407C57.2161 397.407 47.3017 410.562 40.9146 422.24C43.6156 423.861 45.8241 426.165 47.4924 429.104C50.7336 434.84 51.0355 440.496 48.3663 445.04C45.8877 449.266 40.8352 452.206 36.0527 452.206C33.0657 452.206 30.6984 451.062 29.3637 448.996C28.2198 447.217 27.3777 443.944 29.9039 438.446C29.9357 438.303 32.1442 431.805 36.2434 423.781C34.5751 423.225 32.7797 422.939 30.8572 422.939L30.9049 422.923ZM39.3575 425.195C35.3537 433.06 33.1293 439.606 33.0975 439.67C31.5563 443.038 31.2862 445.628 32.2554 447.137C33.1769 448.567 35.0518 448.79 36.0845 448.79C39.0557 448.79 43.2502 447.074 45.4587 443.292C47.5242 439.781 47.2064 435.428 44.553 430.725C43.2184 428.357 41.4707 426.514 39.3575 425.195ZM244.35 434.903C238.979 438.653 235.754 444.007 236.389 446.835C236.485 447.233 236.755 448.456 239.281 448.678C241.458 448.885 242.999 448.313 243.984 446.994C245.637 444.77 245.748 440.432 244.365 434.919L244.35 434.903ZM76.6317 398.852C73.597 410.975 73.9942 423.988 74.2008 427.833C74.3279 430.073 76.5523 430.55 78.3953 430.55C83.7656 430.55 91.0742 426.562 92.965 420.826C94.8557 415.106 91.2331 408.687 82.4945 402.237C80.5402 400.791 78.5701 399.663 76.6317 398.852ZM203.31 388.08C194.222 389.875 188.216 401.331 187.85 409.212C187.723 412.008 188.152 416.822 192.522 417.696C193.062 417.807 193.586 417.855 194.11 417.855C197.558 417.855 200.863 415.599 203.215 411.658C206.233 406.606 207.981 397.486 203.326 388.08H203.31ZM134.863 391.56C132.4 399.377 132.797 405.843 134.593 408.417C135.228 409.323 136.007 409.752 137.023 409.752C142.41 409.307 145.762 407.655 146.35 405.303C147.16 402.014 142.886 396.946 134.863 391.56Z" fill="#BDF1F4"/>
<path d="M300.488 354.083C294.088 354.083 289.308 347.353 290.938 340.403C292.298 334.583 295.938 330.783 301.788 329.433C305.048 328.683 307.858 330.043 310.028 332.473C312.058 334.753 313.438 337.333 312.178 340.533C311.018 343.503 310.018 346.543 308.618 349.393C307.018 352.673 304.058 354.013 300.488 354.073V354.083Z" fill="#D8E8E8"/>
<path d="M282.838 373.223C282.428 374.253 281.928 375.833 281.198 377.293C279.018 381.633 267.268 384.423 262.958 381.793C257.838 378.683 256.688 371.563 260.858 367.223C264.788 363.123 272.878 361.723 277.838 364.293C280.708 365.783 282.958 369.523 282.848 373.213L282.838 373.223Z" fill="#D8E8E8"/>
<path d="M294.998 379.013C293.978 373.543 300.688 368.393 307.508 368.293C312.828 368.223 317.128 372.533 317.038 377.643C316.928 383.513 311.148 388.233 304.148 388.173C298.988 388.133 295.008 384.143 294.998 379.003V379.013Z" fill="#D8E8E8"/>
</svg>
