<svg width="398" height="1861" viewBox="0 0 398 1861" fill="none" xmlns="http://www.w3.org/2000/svg">
<path d="M373.653 850.333C371.623 851.283 369.793 852.793 367.683 853.393C359.523 855.703 351.183 856.663 342.733 855.423C330.003 853.543 319.333 847.763 310.533 838.373C297.533 824.493 293.813 808.423 298.853 790.223C303.203 774.493 313.683 763.333 326.363 753.943C334.103 748.203 343.153 744.953 351.953 741.273C361.873 737.133 372.063 734.143 382.973 734.463C383.553 734.483 384.193 734.363 384.723 734.123C386.043 733.523 386.633 732.443 385.633 731.243C383.823 729.083 382.043 726.813 379.873 725.043C375.133 721.173 369.423 719.083 363.643 717.453C347.803 712.963 331.763 713.653 315.893 716.923C297.103 720.793 280.983 730.053 267.253 743.383C246.713 763.333 237.023 787.883 236.493 816.723C236.733 819.473 236.953 822.613 237.303 825.753C238.633 837.903 242.833 849.043 250.233 858.703C258.573 869.573 269.273 877.553 282.123 882.593C298.083 888.863 314.473 891.963 331.513 888.683C343.153 886.443 353.623 881.423 362.203 873.043C368.243 867.143 372.423 859.903 376.263 852.473C376.583 851.843 376.203 850.853 376.143 850.023C375.313 850.123 374.393 850.023 373.673 850.353L373.653 850.333Z" fill="#C8FAFD"/>
<path d="M367.123 823.513C367.193 822.613 367.313 821.373 366.813 820.853C366.323 820.333 365.053 820.323 364.183 820.463C363.183 820.623 362.253 821.203 361.013 821.713C360.273 819.923 359.763 818.343 358.973 816.913C358.603 816.243 357.643 815.453 357.013 815.503C356.413 815.553 355.783 816.553 355.363 817.253C355.083 817.733 355.013 818.433 355.063 819.003C355.433 822.663 354.703 825.503 350.393 826.203C349.823 826.293 349.093 827.493 349.063 828.203C349.043 828.723 349.983 829.393 350.613 829.803C351.083 830.113 351.763 830.123 352.343 830.233C353.853 830.533 354.503 831.333 354.223 832.943C354.013 834.113 353.833 835.373 354.053 836.513C354.243 837.463 354.983 838.973 355.573 839.023C356.523 839.103 357.743 838.363 358.503 837.623C359.363 836.783 359.843 835.563 360.543 834.433C361.313 835.013 361.813 835.473 362.393 835.803C363.603 836.493 364.603 838.453 366.233 837.133C367.883 835.793 366.563 834.113 365.843 832.863C364.263 830.093 363.953 827.583 366.293 825.093C366.693 824.673 367.053 824.063 367.103 823.513H367.123Z" fill="#C8FAFD"/>
<path d="M394.723 845.503C392.893 845.703 392.253 845.033 392.143 843.383C392.113 842.873 391.993 842.273 391.693 841.893C391.223 841.293 390.573 840.463 389.963 840.423C389.343 840.383 388.443 841.053 388.073 841.653C387.493 842.593 387.173 843.713 386.903 844.803C386.503 846.463 385.643 847.333 383.853 847.543C382.963 847.643 381.553 848.403 381.463 849.023C381.333 849.863 382.043 851.083 382.763 851.733C383.883 852.743 384.223 853.653 383.663 855.073C383.173 856.323 382.893 857.653 382.423 859.303C382.803 859.943 383.113 861.103 383.793 861.403C384.453 861.693 385.563 861.233 386.363 860.863C387.013 860.563 387.543 859.943 388.073 859.423C388.923 858.583 389.483 858.843 390.313 859.613C391.033 860.283 392.143 860.543 393.083 860.983C393.343 860.033 393.903 859.043 393.803 858.133C393.463 855.163 393.793 852.503 396.143 850.383C396.523 850.043 396.773 849.533 396.993 849.063C397.953 846.963 396.973 845.283 394.723 845.533V845.503Z" fill="#C8FAFD"/>
<path d="M384.153 824.013C384.213 822.583 383.443 821.623 381.293 821.253C380.583 822.193 379.443 823.063 379.273 824.093C379.043 825.513 379.983 826.663 381.663 826.633C383.313 826.603 384.083 825.473 384.143 824.023L384.153 824.013Z" fill="#C8FAFD"/>
<path d="M387.233 821.763C389.183 821.473 390.753 821.203 390.413 819.403C390.263 818.583 389.113 817.943 388.423 817.223C387.603 818.233 386.663 819.183 386.053 820.303C385.923 820.543 386.953 821.423 387.233 821.763Z" fill="#C8FAFD"/>
<path d="M386.323 827.643C385.503 827.823 384.873 828.903 384.163 829.603C384.853 830.233 385.543 831.363 386.233 831.363C387.053 831.373 387.883 830.413 388.703 829.873C388.683 829.563 388.663 829.253 388.653 828.943C387.863 828.463 386.973 827.503 386.313 827.643H386.323Z" fill="#C8FAFD"/>
<path d="M341.943 847.783C343.163 848.693 343.943 849.683 344.473 849.563C345.263 849.383 346.273 848.503 346.423 847.753C346.533 847.243 345.383 845.973 344.743 845.933C344.033 845.883 343.253 846.853 341.953 847.773L341.943 847.783Z" fill="#C8FAFD"/>
<path d="M373.833 872.453C373.383 872.333 372.053 873.533 372.103 874.033C372.193 874.893 373.063 875.663 374.033 877.103C374.953 875.693 375.913 874.853 375.763 874.313C375.553 873.533 374.613 872.663 373.823 872.453H373.833Z" fill="#C8FAFD"/>
<path d="M322.546 121.736C319.176 126.526 316.186 131.166 312.806 135.506C309.076 140.286 305.026 144.816 301.026 149.386C300.236 150.286 299.146 151.046 298.046 151.536C294.856 152.956 291.666 151.066 291.836 147.596C292.036 143.346 292.636 139.096 293.336 134.886C294.736 126.516 296.316 118.186 297.856 109.836C298.126 108.366 297.856 107.426 296.366 106.726C288.856 103.196 281.336 99.6764 273.926 95.9364C271.086 94.4964 268.297 92.7364 265.917 90.6264C262.207 87.3264 263.206 83.0864 267.996 81.7564C271.736 80.7164 275.617 80.0964 279.477 79.6464C287.227 78.7464 294.996 78.0564 302.766 77.3564C304.206 77.2264 304.216 76.2364 304.436 75.3164C306.326 67.2964 308.106 59.2464 310.106 51.2564C311.336 46.3364 312.836 41.4764 314.296 36.6164C314.946 34.4464 316.386 32.8164 318.746 32.6664C321.046 32.5264 322.587 34.0464 323.477 35.9964C325.407 40.2164 327.416 44.4264 328.996 48.7864C331.796 56.5364 334.296 64.3864 336.936 72.1964C337.076 72.6064 337.236 72.9964 337.456 73.5664C340.596 72.5064 343.657 71.3664 346.787 70.4564C354.157 68.3064 361.546 66.2464 368.946 64.2164C369.936 63.9464 371.047 64.0064 372.097 64.0764C374.567 64.2564 376.356 66.5664 375.946 69.0264C375.396 72.3364 373.627 75.0364 371.347 77.3764C364.157 84.7364 356.876 92.0064 349.686 99.3564C346.056 103.066 346.177 103.096 347.477 108.156C350.577 120.206 353.587 132.276 356.657 144.336C357.047 145.876 356.836 147.346 355.566 148.196C353.706 149.446 351.596 150.456 349.316 149.206C348.246 148.616 347.186 147.886 346.356 146.996C338.946 139.166 331.597 131.286 324.227 123.416C323.727 122.886 323.206 122.376 322.556 121.706L322.546 121.736ZM361.816 75.8964C361.756 73.9964 360.576 73.4864 358.926 74.4264C350.806 79.0364 342.726 83.6964 334.626 88.3264C333.596 88.9164 333.426 89.7464 333.986 90.6564C334.626 91.6764 335.536 91.4464 336.426 90.9364C344.526 86.2964 352.636 81.6764 360.716 77.0164C361.236 76.7164 361.586 76.1364 361.816 75.8964ZM313.626 103.996C313.236 103.586 312.756 102.686 312.316 102.706C311.686 102.736 310.746 103.306 310.526 103.876C309.816 105.776 309.426 107.796 308.826 109.736C306.666 116.636 304.506 123.526 302.266 130.396C301.856 131.656 302.107 132.656 303.227 132.916C303.787 133.046 304.627 132.116 305.287 131.596C305.497 131.436 305.536 131.046 305.626 130.746C307.916 123.376 310.226 116.016 312.486 108.636C312.916 107.226 313.196 105.766 313.616 103.996H313.626ZM330.386 104.976C330.716 106.006 330.916 106.716 331.176 107.406C331.876 109.246 332.686 111.056 333.316 112.926C335.026 118.006 336.606 123.136 338.386 128.196C338.636 128.916 339.816 129.896 340.376 129.786C341.456 129.586 341.836 128.596 341.396 127.306C339.416 121.536 337.566 115.716 335.606 109.936C335.016 108.186 334.326 106.446 333.466 104.826C333.176 104.286 332.226 103.896 331.546 103.836C331.176 103.806 330.736 104.616 330.376 104.986L330.386 104.976ZM316.926 69.1764C316.926 69.1764 316.986 69.1764 317.016 69.1764C317.036 70.7264 317.026 72.2764 317.106 73.8164C317.136 74.4164 317.196 75.1164 317.526 75.5764C317.866 76.0564 318.816 76.6964 319.026 76.5564C319.616 76.1564 320.346 75.4064 320.356 74.7864C320.436 70.8564 320.316 66.9164 320.296 62.9764C320.296 62.1164 320.476 61.2664 320.516 60.4064C320.646 57.3864 320.776 54.3664 320.816 51.3464C320.816 50.8964 320.406 50.1064 320.106 50.0564C319.526 49.9764 318.716 50.1464 318.306 50.5264C317.866 50.9364 317.596 51.7164 317.566 52.3464C317.316 57.9564 317.136 63.5664 316.936 69.1764H316.926ZM300.466 92.2564C302.586 92.2764 303.716 91.2564 302.986 90.2564C302.516 89.6064 301.526 89.1264 300.696 88.9764C297.666 88.4364 294.616 88.0464 291.556 87.6464C287.826 87.1564 284.106 86.6664 280.366 86.2964C279.816 86.2464 279.187 86.8664 278.597 87.1764C278.997 87.8464 279.277 88.6864 279.847 89.1464C280.307 89.5164 281.126 89.4764 281.796 89.5664C284.116 89.8664 286.446 90.1064 288.766 90.4464C292.786 91.0364 296.796 91.6864 300.446 92.2564H300.466Z" fill="#FFD686"/>
<path d="M318.876 19.6164C317.876 20.8864 317.076 22.0664 316.106 23.0864C315.016 24.2264 313.636 23.8564 313.356 22.3064C313.156 21.1864 313.246 19.9564 313.486 18.8264C313.896 16.9164 313.616 15.5464 311.476 15.0364C311.006 14.9264 310.556 14.6564 310.166 14.3664C308.906 13.4264 308.906 12.0464 310.176 11.1264C310.826 10.6564 311.536 10.1864 312.296 9.98638C314.626 9.35638 315.226 7.66639 315.396 5.54639C315.496 4.25639 315.656 2.92638 316.106 1.73638C316.386 1.00638 317.206 0.126388 317.906 0.00638821C318.436 -0.0836118 319.336 0.796383 319.746 1.44638C320.226 2.20638 320.406 3.17639 320.636 4.06639C320.906 5.12639 321.446 5.47639 322.526 5.13639C323.156 4.93639 323.876 4.85638 324.536 4.91638C326.056 5.04638 326.806 6.28639 326.286 7.70639C326.136 8.10639 325.936 8.53639 325.636 8.82639C323.446 10.9464 323.696 13.5064 324.186 16.1564C324.406 17.3664 324.626 18.6464 324.446 19.8364C324.306 20.7464 323.736 21.9464 322.996 22.3064C322.446 22.5764 321.276 21.8264 320.506 21.3364C319.876 20.9264 319.426 20.2264 318.876 19.6264V19.6164Z" fill="#FFD686"/>
<path d="M288.346 60.0964C288.096 61.3464 288.026 62.3264 287.686 63.2064C287.446 63.8164 286.856 64.6964 286.406 64.7064C285.786 64.7264 284.866 64.1764 284.576 63.6164C284.106 62.7164 283.956 61.6164 283.836 60.5764C283.676 59.2064 282.976 58.6564 281.646 58.5864C280.276 58.5164 278.556 58.8764 278.026 57.0864C277.536 55.4164 278.876 54.3664 280.056 53.6764C282.316 52.3364 282.386 50.5064 281.876 48.2964C281.566 46.9164 281.366 45.4664 281.416 44.0664C281.446 43.3664 282.066 42.2064 282.566 42.1264C283.276 42.0064 284.386 42.4864 284.846 43.0764C285.806 44.3164 286.446 45.8064 287.336 47.3964C288.156 46.6764 288.706 45.9364 289.446 45.6064C290.196 45.2764 291.406 44.9764 291.906 45.3464C292.436 45.7464 292.666 46.9964 292.516 47.7764C292.266 49.0964 291.686 50.3664 291.106 51.5964C290.556 52.7564 290.746 53.6864 291.436 54.7064C292.376 56.0864 293.306 57.4864 294.016 58.9964C294.316 59.6464 294.346 60.9764 293.946 61.2864C293.356 61.7364 292.226 61.7764 291.426 61.5864C290.456 61.3664 289.576 60.7164 288.376 60.1164L288.346 60.0964Z" fill="#FFD686"/>
<path d="M351.996 41.3964C353.026 41.1964 353.816 40.8764 354.586 40.9264C355.386 40.9764 356.556 41.1664 356.836 41.6864C357.176 42.3164 357.006 43.5164 356.596 44.1864C355.906 45.3264 354.916 46.3264 353.926 47.2564C352.926 48.1964 352.566 49.2364 352.776 50.5764C352.996 51.9764 353.206 53.3964 353.186 54.8064C353.186 55.4064 352.696 56.2964 352.196 56.5064C351.676 56.7264 350.736 56.4764 350.236 56.0964C349.526 55.5664 349.036 54.7164 348.286 53.7964C347.306 54.9464 346.706 55.8164 345.946 56.4764C345.416 56.9364 344.466 57.5064 344.036 57.3064C343.496 57.0564 343.006 56.0664 343.016 55.4064C343.036 54.3264 343.406 53.2164 343.766 52.1764C344.116 51.1764 343.856 50.6364 342.996 50.0264C341.886 49.2464 340.206 48.7464 340.386 46.9664C340.586 45.0664 342.376 44.6364 343.776 44.2164C345.536 43.6964 346.246 42.6764 346.496 40.9764C346.706 39.5764 346.996 38.1464 347.556 36.8564C347.866 36.1564 348.816 35.2964 349.466 35.3064C350.106 35.3164 351.046 36.2364 351.286 36.9464C351.726 38.2564 351.756 39.7164 351.996 41.3864V41.3964Z" fill="#FFD686"/>
<path d="M361.826 75.8964C361.596 76.1364 361.246 76.7164 360.726 77.0164C352.636 81.6764 344.536 86.3064 336.436 90.9364C335.546 91.4464 334.636 91.6764 333.996 90.6564C333.426 89.7464 333.606 88.9164 334.636 88.3264C342.736 83.6964 350.826 79.0364 358.936 74.4264C360.586 73.4864 361.766 73.9964 361.826 75.8964Z" fill="#B8943D"/>
<path d="M313.636 103.996C313.206 105.766 312.936 107.226 312.506 108.636C310.246 116.016 307.936 123.376 305.646 130.746C305.556 131.036 305.516 131.426 305.306 131.596C304.646 132.116 303.806 133.046 303.246 132.916C302.126 132.646 301.876 131.646 302.286 130.396C304.526 123.526 306.696 116.636 308.846 109.736C309.456 107.796 309.846 105.776 310.546 103.876C310.756 103.306 311.696 102.736 312.336 102.706C312.776 102.686 313.256 103.586 313.646 103.996H313.636Z" fill="#B8943D"/>
<path d="M330.396 104.976C330.756 104.606 331.196 103.796 331.566 103.826C332.246 103.886 333.196 104.276 333.486 104.816C334.346 106.446 335.036 108.176 335.626 109.926C337.586 115.706 339.437 121.526 341.417 127.296C341.857 128.576 341.476 129.576 340.396 129.776C339.826 129.886 338.656 128.896 338.406 128.186C336.626 123.126 335.046 117.996 333.336 112.916C332.706 111.046 331.896 109.236 331.196 107.396C330.936 106.706 330.736 105.996 330.406 104.966L330.396 104.976Z" fill="#B8943D"/>
<path d="M316.937 69.1864C317.137 63.5764 317.317 57.9664 317.567 52.3564C317.597 51.7264 317.867 50.9464 318.307 50.5364C318.717 50.1464 319.527 49.9864 320.107 50.0664C320.407 50.1064 320.827 50.9064 320.817 51.3564C320.777 54.3764 320.637 57.3964 320.517 60.4164C320.477 61.2764 320.297 62.1264 320.297 62.9864C320.317 66.9264 320.427 70.8564 320.357 74.7964C320.347 75.4164 319.617 76.1664 319.027 76.5664C318.817 76.7064 317.867 76.0664 317.527 75.5864C317.197 75.1264 317.137 74.4264 317.107 73.8264C317.037 72.2764 317.047 70.7364 317.017 69.1864C316.987 69.1864 316.957 69.1864 316.927 69.1864H316.937Z" fill="#B8943D"/>
<path d="M300.477 92.2564C296.827 91.6864 292.816 91.0364 288.796 90.4464C286.476 90.1064 284.146 89.8664 281.826 89.5664C281.156 89.4764 280.336 89.5163 279.876 89.1463C279.306 88.6863 279.026 87.8464 278.626 87.1764C279.216 86.8664 279.836 86.2364 280.396 86.2964C284.136 86.6664 287.856 87.1563 291.586 87.6463C294.636 88.0463 297.697 88.4364 300.727 88.9764C301.557 89.1264 302.546 89.6064 303.016 90.2564C303.736 91.2664 302.616 92.2764 300.496 92.2564H300.477Z" fill="#B8943D"/>
<path d="M68.2109 486.382C26.4879 486.382 5.26105 479.47 1.41606 464.63C-1.71396 452.571 0.383311 441.02 7.32654 432.075C13.3165 424.337 22.357 419.539 30.9049 419.539C33.3835 419.539 35.7191 419.936 37.8799 420.731C44.7119 408.211 55.5319 393.975 69.4819 393.975C71.0867 393.975 72.7073 394.165 74.312 394.547C80.6038 374.4 94.8398 368.077 114.843 377.054C121.945 380.247 128.078 383.393 133.115 386.428C138.136 374.416 149.003 362.277 165.464 362.277C169.96 362.277 174.695 363.183 179.541 364.978C191.425 369.364 200.275 376.084 205.201 384.458C210.984 384.283 216.847 387.174 222.503 393.101C233.72 404.858 242.316 418.125 246.352 429.819C249.482 428.341 252.755 427.563 255.932 427.563C261.652 427.563 266.863 429.946 271.423 434.665C278.923 442.387 278.589 448.79 276.984 452.794C271.487 466.569 242.03 475.911 198.194 477.786C184.879 478.358 168.498 479.804 151.148 481.345C124.392 483.712 94.0772 486.397 68.2109 486.397V486.382ZM30.9049 422.923C23.3738 422.923 15.3661 427.229 10.0117 434.141C3.73576 442.244 1.84504 452.762 4.70495 463.772C8.07329 476.706 28.8394 482.997 68.2109 482.982C93.9342 482.982 124.17 480.312 150.846 477.945C168.244 476.404 184.657 474.958 198.051 474.386C239.869 472.59 268.913 463.836 273.823 451.522C275.602 447.058 273.981 442.164 268.977 437.016C262.764 430.613 254.947 429.31 247.368 433.092C249.354 440.242 249.116 445.707 246.685 448.996C245.001 451.268 242.395 452.365 238.963 452.047C234.594 451.665 233.387 449.076 233.037 447.566C231.988 442.831 236.532 435.841 243.317 431.503C239.551 420.254 230.924 406.892 220.024 395.452C215.623 390.845 211.238 388.303 206.932 387.905C210.65 396.437 210.38 406.193 206.09 413.406C203.119 418.395 198.734 421.255 194.063 421.255C193.316 421.255 192.569 421.176 191.807 421.033C186.881 420.048 184.101 415.583 184.403 409.069C184.863 399.234 191.838 387.683 201.514 385.03C196.859 377.864 188.899 372.065 178.317 368.172C173.837 366.52 169.499 365.693 165.416 365.693C150.386 365.693 140.487 377.133 135.991 388.287C148.765 396.66 150.465 402.586 149.607 406.129C148.654 410.006 144.284 412.564 137.611 413.136C137.405 413.152 137.198 413.168 136.992 413.168C134.863 413.168 133.051 412.199 131.78 410.387C128.968 406.384 129.032 398.185 131.876 389.701C126.871 386.634 120.674 383.425 113.429 380.184C95.3641 372.081 83.2572 377.228 77.5215 395.611C79.857 396.533 82.1926 397.851 84.4965 399.552C97.1754 408.91 97.8427 416.886 96.1744 421.938C93.7912 429.152 85.0526 433.982 78.3794 433.982C73.8989 433.982 70.9913 431.71 70.7848 428.055C70.5623 424.067 70.1492 410.515 73.3587 397.851C72.0558 397.55 70.7371 397.407 69.4501 397.407C57.2161 397.407 47.3017 410.562 40.9146 422.24C43.6156 423.861 45.8241 426.165 47.4924 429.104C50.7336 434.84 51.0355 440.496 48.3663 445.04C45.8877 449.266 40.8352 452.206 36.0527 452.206C33.0657 452.206 30.6984 451.062 29.3637 448.996C28.2198 447.217 27.3777 443.944 29.9039 438.446C29.9357 438.303 32.1442 431.805 36.2434 423.781C34.5751 423.225 32.7797 422.939 30.8572 422.939L30.9049 422.923ZM39.3575 425.195C35.3537 433.06 33.1293 439.606 33.0975 439.67C31.5563 443.038 31.2862 445.628 32.2554 447.137C33.1769 448.567 35.0518 448.79 36.0845 448.79C39.0557 448.79 43.2502 447.074 45.4587 443.292C47.5242 439.781 47.2064 435.428 44.553 430.725C43.2184 428.357 41.4707 426.514 39.3575 425.195ZM244.35 434.903C238.979 438.653 235.754 444.007 236.389 446.835C236.485 447.233 236.755 448.456 239.281 448.678C241.458 448.885 242.999 448.313 243.984 446.994C245.637 444.77 245.748 440.432 244.365 434.919L244.35 434.903ZM76.6317 398.852C73.597 410.975 73.9942 423.988 74.2008 427.833C74.3279 430.073 76.5523 430.55 78.3953 430.55C83.7656 430.55 91.0742 426.562 92.965 420.826C94.8557 415.106 91.2331 408.687 82.4945 402.237C80.5402 400.791 78.5701 399.663 76.6317 398.852ZM203.31 388.08C194.222 389.875 188.216 401.331 187.85 409.212C187.723 412.008 188.152 416.822 192.522 417.696C193.062 417.807 193.586 417.855 194.11 417.855C197.558 417.855 200.863 415.599 203.215 411.658C206.233 406.606 207.981 397.486 203.326 388.08H203.31ZM134.863 391.56C132.4 399.377 132.797 405.843 134.593 408.417C135.228 409.323 136.007 409.752 137.023 409.752C142.41 409.307 145.762 407.655 146.35 405.303C147.16 402.014 142.886 396.946 134.863 391.56Z" fill="#BDF1F4"/>
<path d="M300.488 354.083C294.088 354.083 289.308 347.353 290.938 340.403C292.298 334.583 295.938 330.783 301.788 329.433C305.048 328.683 307.858 330.043 310.028 332.473C312.058 334.753 313.438 337.333 312.178 340.533C311.018 343.503 310.018 346.543 308.618 349.393C307.018 352.673 304.058 354.013 300.488 354.073V354.083Z" fill="#D8E8E8"/>
<path d="M282.838 373.223C282.428 374.253 281.928 375.833 281.198 377.293C279.018 381.633 267.268 384.423 262.958 381.793C257.838 378.683 256.688 371.563 260.858 367.223C264.788 363.123 272.878 361.723 277.838 364.293C280.708 365.783 282.958 369.523 282.848 373.213L282.838 373.223Z" fill="#D8E8E8"/>
<path d="M294.998 379.013C293.978 373.543 300.688 368.393 307.508 368.293C312.828 368.223 317.128 372.533 317.038 377.643C316.928 383.513 311.148 388.233 304.148 388.173C298.988 388.133 295.008 384.143 294.998 379.003V379.013Z" fill="#D8E8E8"/>
<path d="M329.242 1133.94C329.242 1133.94 329.172 1133.94 329.142 1133.94C327.092 1133.88 325.572 1132.15 325.562 1130.15C325.562 1122.15 325.482 1114.14 325.502 1106.14C325.532 1096.29 325.792 1086.45 325.962 1076.6C326.132 1066.91 326.512 1057.21 326.182 1047.52C326.182 1047.47 326.182 1047.42 326.172 1047.36C326.092 1046.95 326.082 1046.53 326.152 1046.09C326.472 1044.14 328.412 1042.69 330.392 1043.06C331.632 1043.29 332.802 1044.14 333.232 1045.36C333.422 1045.91 333.502 1046.46 333.522 1047.04C333.572 1048.21 333.602 1049.38 333.622 1050.55C333.672 1052.88 333.662 1055.22 333.652 1057.56C333.612 1062.26 333.502 1066.97 333.412 1071.67C333.232 1081.56 332.942 1091.44 332.882 1101.32C332.822 1111 332.922 1120.68 332.922 1130.36C332.922 1132.33 331.152 1133.93 329.222 1133.93L329.242 1133.94ZM326.342 1047.94C326.342 1047.94 326.362 1048.01 326.372 1048.05C326.442 1048.2 326.512 1048.34 326.572 1048.48C326.602 1048.51 326.622 1048.55 326.652 1048.59C326.522 1048.39 326.422 1048.17 326.332 1047.94H326.342Z" fill="#F9CDED"/>
<path d="M369.962 1089.02C369.532 1089.02 369.102 1088.99 368.702 1088.97C367.722 1088.91 366.752 1088.84 365.772 1088.78C363.592 1088.64 361.402 1088.53 359.212 1088.44C354.642 1088.26 350.082 1088.03 345.512 1087.74C335.492 1087.1 325.492 1086.37 315.472 1085.73C305.672 1085.11 295.862 1084.57 286.042 1084.3C284.032 1084.25 282.412 1082.51 282.462 1080.51C282.522 1078.5 284.252 1076.89 286.262 1076.94C294.492 1077.16 302.712 1077.56 310.932 1078.07C321.082 1078.69 331.222 1079.44 341.372 1080.09C346.362 1080.41 351.352 1080.74 356.342 1080.94C358.772 1081.04 361.202 1081.13 363.632 1081.26C364.872 1081.33 366.102 1081.41 367.342 1081.49C368.122 1081.54 368.912 1081.61 369.702 1081.62C370.402 1081.51 371.172 1081.64 371.792 1081.92C372.662 1082.31 373.362 1083.04 373.712 1083.93C374.072 1084.85 374.052 1085.89 373.642 1086.79C373.232 1087.7 372.512 1088.29 371.632 1088.7C371.122 1088.94 370.542 1089 369.952 1089L369.962 1089.02Z" fill="#F9CDED"/>
<path d="M351.132 1107.33C351.132 1107.33 351.062 1107.33 351.032 1107.33C350.042 1107.3 349.182 1106.87 348.482 1106.2C347.642 1105.4 346.802 1104.6 345.962 1103.81C342.432 1100.46 338.882 1097.13 335.352 1093.78C331.752 1090.38 328.102 1087.02 324.522 1083.61C320.932 1080.19 317.412 1076.71 313.852 1073.26C312.062 1071.53 310.282 1069.79 308.542 1068.02C307.702 1067.17 306.872 1066.3 306.042 1065.44C305.442 1064.81 304.852 1064.17 304.232 1063.56C303.002 1062.66 302.392 1061.04 302.852 1059.52C303.432 1057.6 305.532 1056.48 307.452 1057.06C308.282 1057.31 308.932 1057.85 309.542 1058.45C310.162 1059.07 310.762 1059.72 311.372 1060.35C314.752 1063.88 318.262 1067.27 321.762 1070.68C325.332 1074.17 328.912 1077.65 332.562 1081.07C339.662 1087.73 346.772 1094.39 353.812 1101.11C355.262 1102.5 355.102 1104.97 353.692 1106.31C353.002 1106.96 352.082 1107.33 351.132 1107.33Z" fill="#F9CDED"/>
<path d="M306.862 1110.22C305.842 1110.22 304.812 1109.82 304.112 1109.09C303.432 1108.38 303.062 1107.42 303.092 1106.43C303.122 1105.43 303.562 1104.6 304.232 1103.88C304.532 1103.55 304.842 1103.22 305.142 1102.9C308.472 1099.28 311.792 1095.63 315.132 1092.02C315.972 1091.11 316.812 1090.2 317.652 1089.29C318.062 1088.85 318.462 1088.41 318.872 1087.97C318.972 1087.86 319.062 1087.76 319.162 1087.65C319.482 1087.26 319.852 1086.9 320.182 1086.54C323.612 1082.81 327.062 1079.09 330.662 1075.52C332.412 1073.79 334.202 1072.11 335.952 1070.39C337.642 1068.72 339.302 1067.04 340.982 1065.37C342.672 1063.7 344.392 1062.05 346.132 1060.43C347.712 1058.96 349.342 1057.52 350.822 1055.94C350.932 1055.82 351.042 1055.7 351.152 1055.57C352.112 1054.13 354.132 1053.58 355.722 1054.3C357.592 1055.14 358.342 1057.31 357.572 1059.17C357.402 1059.58 357.122 1059.92 356.842 1060.25C356.422 1060.73 355.992 1061.2 355.542 1061.66C354.622 1062.59 353.662 1063.48 352.702 1064.37C350.612 1066.32 348.512 1068.28 346.472 1070.29C344.752 1071.99 343.062 1073.71 341.342 1075.41C339.562 1077.16 337.752 1078.88 335.962 1080.63C332.432 1084.08 329.092 1087.71 325.742 1091.34C325.772 1091.31 325.792 1091.28 325.822 1091.25C325.452 1091.66 325.072 1092.07 324.692 1092.47C324.672 1092.5 324.642 1092.52 324.622 1092.54C321.952 1095.43 319.282 1098.32 316.612 1101.21C316.622 1101.2 316.642 1101.18 316.652 1101.17C314.202 1103.84 311.772 1106.54 309.302 1109.2C308.662 1109.89 307.752 1110.22 306.842 1110.22H306.862Z" fill="#F9CDED"/>
<path d="M77.2411 1391.32C79.0411 1394.36 78.0212 1398.21 77.1212 1401.64C74.0012 1413.61 73.0812 1426.1 74.3712 1438.41C74.6112 1440.49 75.0513 1442.4 75.7213 1444.12C77.4613 1448.62 80.5412 1451.89 84.4612 1454.14C84.7912 1454.32 85.1412 1454.52 85.5012 1454.69C85.8812 1454.92 86.2913 1455.1 86.7213 1455.27C88.0013 1455.83 89.3412 1456.3 90.7012 1456.7C91.1112 1456.82 91.5511 1456.92 91.9911 1457.02C95.3611 1457.81 99.0112 1458.1 102.681 1457.98C113.201 1457.56 119.361 1450.82 127.161 1444.7C129.961 1442.5 143.821 1429.63 152.711 1422.68C154.731 1421.1 156.501 1419.81 157.811 1419.03C158.931 1418.35 159.721 1418.06 160.061 1418.23C165.681 1421.29 171.341 1424.28 177.021 1427.25C180.671 1429.14 184.521 1431.05 188.431 1432.58C195.411 1435.24 202.661 1436.67 209.721 1434.69C214.021 1433.47 218.281 1430.53 219.131 1426.14C221.661 1413.39 212.021 1395.52 206.321 1384.67C204.391 1381.01 202.341 1377.46 200.171 1373.96C201.111 1372.51 202.051 1371.1 202.911 1369.61C210.531 1356.78 220.681 1335.64 216.041 1320.43C214.251 1314.52 209.901 1310.92 204.151 1308.87C188.221 1303.17 161.621 1309.4 149.821 1311.12C141.421 1301.2 133.351 1291.07 126.331 1280.18C122.071 1273.58 116.681 1265.82 108.821 1266.09C96.3112 1266.54 91.3813 1284.18 89.3513 1293.95C87.0413 1304.95 85.0112 1316.05 83.3012 1327.23C70.7812 1331.52 58.3012 1337.57 47.4911 1345.3C43.6711 1348.08 39.8013 1351.35 38.4713 1355.88C36.9413 1361.12 39.3112 1366.89 43.0912 1370.86C46.8912 1374.8 51.9113 1377.32 56.8513 1379.73C61.7213 1382.14 66.6012 1384.54 71.5112 1386.96C73.6812 1388.03 76.0011 1389.24 77.2411 1391.32Z" fill="#FFD686"/>
<path d="M149.661 1359.11C150.311 1362.92 153.921 1365.48 157.741 1364.84C161.561 1364.2 164.131 1360.59 163.481 1356.78C162.841 1352.97 159.221 1350.41 155.401 1351.05C151.581 1351.69 149.011 1355.3 149.661 1359.11Z" fill="#B8943D"/>
<path d="M95.4213 1368.26C96.0613 1372.07 99.6813 1374.63 103.501 1373.99C107.321 1373.35 109.891 1369.74 109.241 1365.93C108.601 1362.12 104.981 1359.56 101.161 1360.2C97.3413 1360.84 94.7713 1364.45 95.4213 1368.26Z" fill="#B8943D"/>
<path d="M115.161 1365.93C115.931 1363.74 118.431 1363.36 120.231 1364.39C121.171 1364.93 121.581 1365.87 122.041 1366.79C122.161 1367.03 122.291 1367.26 122.421 1367.49C122.471 1367.56 122.561 1367.7 122.631 1367.8C122.951 1368.23 123.311 1368.63 123.691 1369.02C123.791 1369.11 124.031 1369.34 124.101 1369.39C124.351 1369.59 124.611 1369.79 124.881 1369.97C125.101 1370.12 125.321 1370.25 125.541 1370.39C125.571 1370.39 125.991 1370.63 126.081 1370.66C126.621 1370.9 127.181 1371.09 127.751 1371.26C127.821 1371.28 127.841 1371.29 127.841 1371.29C127.881 1371.29 127.901 1371.29 128.001 1371.31C128.321 1371.36 128.641 1371.41 128.961 1371.44C129.211 1371.46 129.461 1371.47 129.711 1371.48C129.681 1371.47 130.271 1371.46 130.321 1371.45C130.911 1371.38 131.491 1371.27 132.061 1371.13C132.071 1371.13 132.061 1371.13 132.081 1371.13C132.211 1371.09 132.331 1371.04 132.461 1370.99C132.711 1370.89 132.961 1370.79 133.201 1370.67C134.151 1370.22 134.981 1369.66 135.921 1368.68C137.161 1367.38 138.191 1365.19 138.421 1363.11C138.561 1361.87 139.611 1360.89 140.861 1360.86C141.991 1360.84 143.381 1361.67 143.441 1362.94C143.621 1366.51 142.551 1369.89 140.231 1372.66C138.001 1375.33 134.911 1377.43 131.411 1377.96C127.811 1378.51 124.241 1377.6 121.141 1375.76C119.701 1374.9 118.371 1373.73 117.311 1372.44C115.841 1370.66 114.331 1368.28 115.161 1365.93Z" fill="#B8943D"/>
<path d="M148.151 1379.43C148.761 1382.57 156.271 1383.74 164.921 1382.06C173.571 1380.38 180.081 1376.47 179.461 1373.33C178.851 1370.19 171.341 1369.02 162.691 1370.7C154.041 1372.38 147.531 1376.29 148.151 1379.43Z" fill="#DF9E8D"/>
<path d="M84.5312 1390.89C85.1412 1394.03 92.6512 1395.2 101.301 1393.52C109.951 1391.83 116.461 1387.93 115.841 1384.79C115.231 1381.65 107.721 1380.48 99.0712 1382.16C90.4212 1383.84 83.9112 1387.75 84.5312 1390.89Z" fill="#DF9E8D"/>
<path d="M250.567 1370.65C258.647 1367.17 267.787 1366.51 275.557 1362.31C275.507 1362.21 275.467 1362.11 275.437 1361.99C275.347 1361.63 275.407 1361.28 275.577 1360.99C275.577 1360.97 275.577 1360.95 275.577 1360.93C275.547 1360.46 275.557 1359.99 275.547 1359.53C275.537 1358.65 275.547 1357.76 275.567 1356.88C275.607 1355.01 275.727 1353.14 275.907 1351.28C276.267 1347.6 276.877 1343.95 277.747 1340.36C278.037 1339.15 279.507 1339.15 280.157 1340.01C284.857 1346.16 289.187 1352.59 293.107 1359.27C298.267 1356.01 303.487 1352.83 309.187 1350.6C310.287 1350.17 311.687 1349.79 312.677 1350.7C313.847 1351.78 313.027 1353.35 312.477 1354.51C311.147 1357.31 309.377 1359.9 307.757 1362.54C305.797 1365.72 303.837 1368.9 301.877 1372.08C301.857 1372.11 301.847 1372.13 301.827 1372.15C303.727 1375.99 305.837 1379.73 308.177 1383.32C309.347 1385.11 310.567 1386.87 311.837 1388.59C313.097 1390.29 314.357 1391.94 314.957 1394C315.177 1394.74 314.547 1395.76 313.697 1395.66C311.677 1395.43 309.837 1394.75 308.007 1393.89C305.987 1392.94 303.987 1391.93 301.967 1390.95C298.577 1389.3 295.197 1387.64 291.807 1385.99C288.867 1393.41 285.817 1400.78 282.637 1408.1C282.147 1409.24 280.547 1408.79 280.207 1407.81C277.647 1400.35 275.137 1392.88 272.667 1385.39C265.707 1380.57 258.317 1376.41 250.597 1372.95C249.747 1372.57 249.657 1371.05 250.557 1370.67L250.567 1370.65Z" fill="#FFD686"/>
<path d="M180.006 1812.33C174.778 1814.79 172.716 1820.04 175.069 1824.93C177.876 1830.77 186.021 1834.55 190.966 1832.3C196.793 1829.66 198.802 1823.56 195.896 1817.42C193.058 1811.41 186.448 1809.29 180.015 1812.32L180.006 1812.33Z" fill="#BDF1F4"/>
<path d="M221.261 1847.2C226.533 1844.78 228.806 1840.03 226.989 1835.29C225.06 1830.27 220.64 1828.41 214.876 1829.66C211.177 1830.46 208.23 1832.12 206.37 1835.29C204.271 1838.88 204.899 1842.7 207.693 1846.01C210.096 1848.86 214.385 1849.89 218.368 1848.52C219.365 1848.17 220.297 1847.64 221.257 1847.19L221.261 1847.2Z" fill="#BDF1F4"/>
<path d="M263.172 1816.39C274.612 1816.39 282.312 1810.6 286.282 1806.57C289.742 1807.99 294.072 1809.13 299.172 1809.98C301.152 1810.31 303.122 1810.48 305.022 1810.48C318.102 1810.48 332.862 1800.98 335.322 1783.34C337.292 1783.48 339.312 1783.42 341.342 1783.16C349.972 1782.04 355.012 1774.75 354.822 1763.65C354.562 1748.37 344.602 1731.09 330.182 1729.72C329.722 1729.68 329.262 1729.64 328.812 1729.61C327.682 1716.68 319.602 1703.42 306.142 1703.22H305.422C297.722 1703.22 290.472 1705.09 285.162 1708.4C280.172 1699.76 272.652 1695.3 264.552 1696.35C251.462 1698.05 242.532 1705.64 238.952 1712.82C235.732 1709.61 229.472 1704.67 221.372 1704.67C220.542 1704.67 219.702 1704.72 218.872 1704.83C209.292 1706.07 200.492 1714.45 196.562 1722.17C193.012 1721.45 189.632 1722.07 186.692 1723.97C176.532 1730.51 172.332 1751.65 175.632 1764.79C177.762 1773.3 182.672 1778.29 189.432 1778.85C189.432 1778.85 189.442 1778.85 189.452 1778.85C191.932 1788.68 199.172 1800.82 212.522 1806.76C216.232 1808.41 219.912 1809.25 223.472 1809.25C228.802 1809.25 232.782 1807.42 235.432 1805.57C241.092 1810.82 248.852 1814.47 257.462 1815.9C259.372 1816.22 261.302 1816.38 263.172 1816.38V1816.39ZM283.042 1805.03C279.282 1808.56 272.652 1813.03 263.172 1813.02C261.482 1813.02 259.742 1812.87 258.012 1812.59C250.212 1811.29 243.192 1808.05 238.042 1803.41C241.922 1799.58 243.862 1794.47 242.802 1790.47C241.992 1787.41 239.612 1785.4 236.102 1784.82C232.192 1784.17 229.292 1785.45 228.102 1788.29C226.502 1792.11 228.472 1797.91 233.032 1803.13C230.822 1804.56 227.652 1805.89 223.462 1805.89C220.382 1805.89 217.162 1805.15 213.892 1803.7C202.062 1798.43 195.462 1787.85 192.972 1778.98C197.782 1778.88 200.942 1777.58 202.372 1775.11C203.472 1773.2 203.342 1770.78 202.002 1768.47C200.142 1765.26 196.492 1763.08 193.282 1763.26C192.032 1763.33 190.942 1763.94 190.122 1765.01C188.572 1767.04 188.092 1770.83 188.752 1775.37C182.752 1774.35 180.082 1768.67 178.902 1763.96C175.592 1750.75 180.442 1731.99 188.522 1726.79C190.532 1725.49 192.782 1725.01 195.202 1725.35C193.882 1729.17 193.882 1732.59 195.212 1735.34C196.522 1738.05 198.992 1739.89 202.572 1740.82C203.962 1741.18 205.212 1741.37 206.282 1741.37C209.162 1741.37 211.082 1739.97 211.432 1737.61C212.122 1732.9 206.402 1726.01 199.832 1723.19C203.512 1716.33 211.372 1709.19 219.312 1708.16C219.992 1708.07 220.692 1708.03 221.382 1708.03C229.292 1708.03 235.292 1713.71 237.632 1716.31C236.602 1720.3 237.662 1723.43 240.482 1724.58C241.082 1724.83 241.612 1724.94 242.112 1724.94C243.122 1724.94 243.962 1724.42 244.372 1723.56C245.442 1721.29 242.882 1717.48 241.412 1715.58C243.742 1709.84 251.552 1701.42 264.992 1699.68C265.652 1699.59 266.312 1699.55 266.962 1699.55C275.072 1699.55 280.142 1706.38 282.422 1710.38C279.112 1713.18 277.302 1716.48 277.292 1719.78C277.292 1721.97 278.092 1725.2 281.972 1728.12C284.792 1730.24 287.382 1729.97 288.722 1727.78C290.582 1724.76 289.702 1717.89 286.712 1711.39C291.492 1708.31 298.222 1706.57 305.422 1706.57H306.092C318.682 1706.76 324.422 1720.11 325.402 1729.57C315.862 1730 312.432 1735.05 312.432 1739.39C312.432 1743.68 315.562 1747.03 319.552 1747.03C320.772 1747.03 322.012 1746.72 323.242 1746.1C326.792 1744.33 328.862 1739.49 328.932 1732.97C329.232 1732.99 329.532 1733.02 329.842 1733.05C342.272 1734.24 351.192 1750.15 351.422 1763.69C351.492 1768.11 350.622 1778.53 340.882 1779.8C339.092 1780.03 337.322 1780.09 335.602 1779.97C335.862 1771.91 332.422 1766.03 326.392 1764.46C324.782 1764.04 323.322 1763.83 322.052 1763.83C317.712 1763.83 316.002 1766.3 315.842 1768.62C315.522 1773.4 321.472 1780.84 331.952 1782.89C329.742 1798.63 316.622 1807.11 305.002 1807.11C303.282 1807.11 301.502 1806.96 299.712 1806.66C295.392 1805.94 291.682 1805.01 288.652 1803.88C293.032 1798.36 295.042 1792.15 293.482 1788.53C292.672 1786.65 291.012 1785.6 288.822 1785.57C288.822 1785.57 288.652 1785.57 288.642 1785.57C282.902 1785.57 277.392 1789.44 276.362 1794.2C275.832 1796.66 276.092 1801.15 283.042 1805.02V1805.03ZM288.652 1788.95C289.852 1788.97 290.202 1789.43 290.392 1789.88C291.362 1792.12 289.722 1797.44 285.452 1802.5C281.132 1800.3 279.082 1797.63 279.672 1794.92C280.362 1791.74 284.562 1788.95 288.652 1788.95ZM234.172 1788.02C234.592 1788.02 235.062 1788.06 235.552 1788.14C237.732 1788.5 239.082 1789.58 239.542 1791.33C240.292 1794.15 238.692 1798.04 235.672 1801.01C231.552 1796.35 230.282 1791.83 231.222 1789.58C231.382 1789.19 231.882 1788.01 234.172 1788.01V1788.02ZM322.072 1767.22C323.062 1767.22 324.232 1767.4 325.562 1767.74C330.602 1769.06 332.312 1774.4 332.252 1779.52C323.802 1777.71 319.032 1771.8 319.232 1768.86C319.262 1768.45 319.342 1767.22 322.072 1767.22ZM193.702 1766.62C195.602 1766.62 197.922 1768.14 199.092 1770.15C199.432 1770.74 200.152 1772.23 199.462 1773.42C198.642 1774.83 195.992 1775.6 192.222 1775.61C191.472 1771.25 191.942 1768.2 192.822 1767.05C193.092 1766.69 193.312 1766.63 193.492 1766.62H193.702ZM325.572 1732.95C325.512 1738.05 324.072 1741.96 321.742 1743.12C320.982 1743.5 320.252 1743.69 319.562 1743.69C317.212 1743.69 315.812 1741.52 315.812 1739.41C315.812 1736.57 318.392 1733.28 325.562 1732.95H325.572ZM198.472 1726.28C204.382 1728.75 208.452 1734.72 208.102 1737.13C208.062 1737.39 207.972 1738.01 206.292 1738.01C205.512 1738.01 204.552 1737.86 203.442 1737.57C200.872 1736.9 199.132 1735.66 198.272 1733.88C197.332 1731.94 197.412 1729.28 198.472 1726.27V1726.28ZM283.982 1713.54C286.542 1719.43 286.782 1724.54 285.852 1726.04C285.732 1726.24 285.672 1726.24 285.612 1726.24C285.482 1726.24 284.982 1726.18 284.002 1725.45C281.782 1723.78 280.652 1721.89 280.662 1719.82C280.662 1717.76 281.852 1715.54 283.972 1713.55L283.982 1713.54Z" fill="#BDF1F4"/>
</svg>
