<svg width="398" height="1840" viewBox="0 0 398 1840" fill="none" xmlns="http://www.w3.org/2000/svg">
<path d="M55.8957 90.9379C55.8957 90.9379 55.9657 90.9379 55.9957 90.9379C58.0457 90.8779 59.5657 89.1479 59.5757 87.1479C59.5757 79.1479 59.6557 71.1379 59.6357 63.1379C59.6057 53.2879 59.3457 43.4479 59.1757 33.5979C59.0057 23.9079 58.6257 14.2079 58.9557 4.51788C58.9557 4.46788 58.9557 4.41788 58.9657 4.35788C59.0457 3.94788 59.0557 3.52788 58.9857 3.08788C58.6657 1.13788 56.7257 -0.312116 54.7457 0.0578841C53.5057 0.287884 52.3357 1.13788 51.9057 2.35788C51.7157 2.90788 51.6357 3.45788 51.6157 4.03788C51.5657 5.20788 51.5357 6.37788 51.5157 7.54788C51.4657 9.87788 51.4757 12.2179 51.4857 14.5579C51.5257 19.2579 51.6357 23.9679 51.7257 28.6679C51.9057 38.5579 52.1957 48.4379 52.2557 58.3179C52.3157 67.9979 52.2157 77.6779 52.2157 87.3579C52.2157 89.3279 53.9857 90.9279 55.9157 90.9279L55.8957 90.9379ZM58.7957 4.93788C58.7957 4.93788 58.7757 5.00788 58.7657 5.04788C58.6957 5.19788 58.6257 5.33788 58.5657 5.47788C58.5357 5.50788 58.5157 5.54788 58.4857 5.58788C58.6157 5.38788 58.7157 5.16788 58.8057 4.93788H58.7957Z" fill="#F9CDED"/>
<path d="M15.1757 46.0179C15.6057 46.0179 16.0357 45.9879 16.4357 45.9679C17.4157 45.9079 18.3857 45.8379 19.3657 45.7779C21.5457 45.6379 23.7357 45.5279 25.9257 45.4379C30.4957 45.2579 35.0557 45.0279 39.6257 44.7379C49.6457 44.0979 59.6457 43.3679 69.6657 42.7279C79.4657 42.1079 89.2757 41.5679 99.0957 41.2979C101.106 41.2479 102.726 39.5079 102.676 37.5079C102.616 35.4979 100.886 33.8879 98.8757 33.9379C90.6457 34.1579 82.4257 34.5579 74.2057 35.0679C64.0557 35.6879 53.9157 36.4379 43.7657 37.0879C38.7757 37.4079 33.7857 37.7379 28.7957 37.9379C26.3657 38.0379 23.9357 38.1279 21.5057 38.2579C20.2657 38.3279 19.0357 38.4079 17.7957 38.4879C17.0157 38.5379 16.2257 38.6079 15.4357 38.6179C14.7357 38.5079 13.9657 38.6379 13.3457 38.9179C12.4757 39.3079 11.7757 40.0379 11.4257 40.9279C11.0657 41.8479 11.0857 42.8879 11.4957 43.7879C11.9057 44.6979 12.6257 45.2879 13.5057 45.6979C14.0157 45.9379 14.5957 45.9979 15.1857 45.9979L15.1757 46.0179Z" fill="#F9CDED"/>
<path d="M34.0057 64.3279C34.0057 64.3279 34.0757 64.3279 34.1057 64.3279C35.0957 64.2979 35.9557 63.8679 36.6557 63.1979C37.4957 62.3979 38.3357 61.5979 39.1757 60.8079C42.7057 57.4579 46.2557 54.1279 49.7857 50.7779C53.3857 47.3779 57.0357 44.0179 60.6157 40.6079C64.2057 37.1879 67.7257 33.7079 71.2857 30.2579C73.0757 28.5279 74.8557 26.7879 76.5957 25.0179C77.4357 24.1679 78.2657 23.2979 79.0957 22.4379C79.6957 21.8079 80.2857 21.1679 80.9057 20.5579C82.1357 19.6579 82.7457 18.0379 82.2857 16.5179C81.7057 14.5979 79.6057 13.4779 77.6857 14.0579C76.8557 14.3079 76.2057 14.8479 75.5957 15.4479C74.9757 16.0679 74.3757 16.7179 73.7657 17.3479C70.3857 20.8779 66.8757 24.2679 63.3757 27.6779C59.8057 31.1679 56.2257 34.6479 52.5757 38.0679C45.4757 44.7279 38.3657 51.3879 31.3257 58.1079C29.8757 59.4979 30.0357 61.9679 31.4457 63.3079C32.1357 63.9579 33.0557 64.3279 34.0057 64.3279Z" fill="#F9CDED"/>
<path d="M78.2757 67.2179C79.2957 67.2179 80.3257 66.8179 81.0257 66.0879C81.7057 65.3779 82.0757 64.4179 82.0457 63.4279C82.0157 62.4279 81.5757 61.5979 80.9057 60.8779C80.6057 60.5479 80.2957 60.2179 79.9957 59.8979C76.6657 56.2779 73.3457 52.6279 70.0057 49.0179C69.1657 48.1079 68.3257 47.1979 67.4857 46.2879C67.0757 45.8479 66.6757 45.4079 66.2657 44.9679C66.1657 44.8579 66.0757 44.7579 65.9757 44.6479C65.6557 44.2579 65.2857 43.8979 64.9557 43.5379C61.5257 39.8079 58.0757 36.0879 54.4757 32.5179C52.7257 30.7879 50.9357 29.1079 49.1857 27.3879C47.4957 25.7179 45.8357 24.0379 44.1557 22.3679C42.4657 20.6979 40.7457 19.0479 39.0057 17.4279C37.4257 15.9579 35.7957 14.5179 34.3157 12.9379C34.2057 12.8179 34.0957 12.6979 33.9857 12.5679C33.0257 11.1279 31.0057 10.5779 29.4157 11.2979C27.5457 12.1379 26.7957 14.3079 27.5657 16.1679C27.7357 16.5779 28.0157 16.9179 28.2957 17.2479C28.7157 17.7279 29.1457 18.1979 29.5957 18.6579C30.5157 19.5879 31.4757 20.4779 32.4357 21.3679C34.5257 23.3179 36.6257 25.2779 38.6657 27.2879C40.3857 28.9879 42.0757 30.7079 43.7957 32.4079C45.5757 34.1579 47.3857 35.8779 49.1757 37.6279C52.7057 41.0779 56.0457 44.7079 59.3957 48.3379C59.3657 48.3079 59.3457 48.2779 59.3157 48.2479C59.6857 48.6579 60.0657 49.0679 60.4457 49.4679C60.4657 49.4979 60.4957 49.5179 60.5157 49.5379C63.1857 52.4279 65.8557 55.3179 68.5257 58.2079C68.5157 58.1979 68.4957 58.1779 68.4857 58.1679C70.9357 60.8379 73.3657 63.5379 75.8357 66.1979C76.4757 66.8879 77.3857 67.2179 78.2957 67.2179H78.2757Z" fill="#F9CDED"/>
<path d="M307.897 348.32C306.097 351.36 307.117 355.21 308.017 358.64C311.137 370.61 312.057 383.1 310.767 395.41C310.527 397.49 310.087 399.4 309.417 401.12C307.677 405.62 304.597 408.89 300.677 411.14C300.347 411.32 299.997 411.52 299.637 411.69C299.257 411.92 298.847 412.1 298.417 412.27C297.137 412.83 295.797 413.3 294.437 413.7C294.027 413.82 293.587 413.92 293.147 414.02C289.777 414.81 286.127 415.1 282.457 414.98C271.937 414.56 265.777 407.82 257.977 401.7C255.177 399.5 241.317 386.63 232.427 379.68C230.407 378.1 228.637 376.81 227.327 376.03C226.207 375.35 225.417 375.06 225.077 375.23C219.457 378.29 213.797 381.28 208.117 384.25C204.467 386.14 200.617 388.05 196.707 389.58C189.727 392.24 182.477 393.67 175.417 391.69C171.117 390.47 166.857 387.53 166.007 383.14C163.477 370.39 173.117 352.52 178.817 341.67C180.747 338.01 182.797 334.46 184.967 330.96C184.027 329.51 183.087 328.1 182.227 326.61C174.607 313.78 164.457 292.64 169.097 277.43C170.887 271.52 175.237 267.92 180.987 265.87C196.917 260.17 223.517 266.4 235.317 268.12C243.717 258.2 251.787 248.07 258.807 237.18C263.067 230.58 268.457 222.82 276.317 223.09C288.827 223.54 293.757 241.18 295.787 250.95C298.097 261.95 300.127 273.05 301.837 284.23C314.357 288.52 326.837 294.57 337.647 302.3C341.467 305.08 345.337 308.35 346.667 312.88C348.197 318.12 345.827 323.89 342.047 327.86C338.247 331.8 333.227 334.32 328.287 336.73C323.417 339.14 318.537 341.54 313.627 343.96C311.457 345.03 309.137 346.24 307.897 348.32Z" fill="#FFD686"/>
<path d="M235.477 316.11C234.827 319.92 231.217 322.48 227.397 321.84C223.577 321.2 221.007 317.59 221.657 313.78C222.297 309.97 225.917 307.41 229.737 308.05C233.557 308.69 236.127 312.3 235.477 316.11Z" fill="#B8943D"/>
<path d="M289.717 325.26C289.077 329.07 285.457 331.63 281.637 330.99C277.817 330.35 275.247 326.74 275.897 322.93C276.537 319.12 280.157 316.56 283.977 317.2C287.797 317.84 290.367 321.45 289.717 325.26Z" fill="#B8943D"/>
<path d="M269.977 322.93C269.207 320.74 266.707 320.36 264.907 321.39C263.967 321.93 263.557 322.87 263.097 323.79C262.977 324.03 262.847 324.26 262.717 324.49C262.667 324.56 262.577 324.7 262.507 324.8C262.187 325.23 261.827 325.63 261.447 326.02C261.347 326.11 261.107 326.34 261.037 326.39C260.787 326.59 260.527 326.79 260.257 326.97C260.037 327.12 259.817 327.25 259.597 327.39C259.567 327.39 259.147 327.63 259.057 327.66C258.517 327.9 257.957 328.09 257.387 328.26C257.317 328.28 257.297 328.29 257.297 328.29C257.257 328.29 257.237 328.29 257.137 328.31C256.817 328.36 256.497 328.41 256.177 328.44C255.927 328.46 255.677 328.47 255.427 328.48C255.457 328.47 254.867 328.46 254.817 328.45C254.227 328.38 253.647 328.27 253.077 328.13C253.067 328.13 253.077 328.13 253.057 328.13C252.927 328.09 252.807 328.04 252.677 327.99C252.427 327.89 252.177 327.79 251.937 327.67C250.987 327.22 250.157 326.66 249.217 325.68C247.977 324.38 246.947 322.19 246.717 320.11C246.577 318.87 245.527 317.89 244.277 317.86C243.147 317.84 241.757 318.67 241.697 319.94C241.517 323.51 242.587 326.89 244.907 329.66C247.137 332.33 250.227 334.43 253.727 334.96C257.327 335.51 260.897 334.6 263.997 332.76C265.437 331.9 266.767 330.73 267.827 329.44C269.297 327.66 270.807 325.28 269.977 322.93Z" fill="#B8943D"/>
<path d="M236.987 336.43C236.377 339.57 228.867 340.74 220.217 339.06C211.567 337.38 205.057 333.47 205.677 330.33C206.287 327.19 213.797 326.02 222.447 327.7C231.097 329.38 237.607 333.29 236.987 336.43Z" fill="#DF9E8D"/>
<path d="M300.607 347.89C299.997 351.03 292.487 352.2 283.837 350.52C275.187 348.83 268.677 344.93 269.297 341.79C269.907 338.65 277.417 337.48 286.067 339.16C294.717 340.84 301.227 344.75 300.607 347.89Z" fill="#DF9E8D"/>
<path d="M134.57 327.65C126.49 324.17 117.35 323.51 109.58 319.31C109.63 319.21 109.67 319.11 109.7 318.99C109.79 318.63 109.73 318.28 109.56 317.99C109.56 317.97 109.56 317.95 109.56 317.93C109.59 317.46 109.58 316.99 109.59 316.53C109.6 315.65 109.59 314.76 109.57 313.88C109.53 312.01 109.41 310.14 109.23 308.28C108.87 304.6 108.26 300.95 107.39 297.36C107.1 296.15 105.63 296.15 104.98 297.01C100.28 303.16 95.9504 309.59 92.0304 316.27C86.8704 313.01 81.6504 309.83 75.9504 307.6C74.8504 307.17 73.4504 306.79 72.4604 307.7C71.2904 308.78 72.1104 310.35 72.6604 311.51C73.9904 314.31 75.7604 316.9 77.3804 319.54C79.3404 322.72 81.3004 325.9 83.2604 329.08C83.2804 329.11 83.2904 329.13 83.3104 329.15C81.4104 332.99 79.3004 336.73 76.9604 340.32C75.7904 342.11 74.5703 343.87 73.3003 345.59C72.0403 347.29 70.7803 348.94 70.1803 351C69.9603 351.74 70.5904 352.76 71.4404 352.66C73.4604 352.43 75.3004 351.75 77.1304 350.89C79.1504 349.94 81.1504 348.93 83.1704 347.95C86.5604 346.3 89.9404 344.64 93.3304 342.99C96.2704 350.41 99.3204 357.78 102.5 365.1C102.99 366.24 104.59 365.79 104.93 364.81C107.49 357.35 110 349.88 112.47 342.39C119.43 337.57 126.82 333.41 134.54 329.95C135.39 329.57 135.48 328.05 134.58 327.67L134.57 327.65Z" fill="#FFD686"/>
<path d="M205.132 769.325C210.36 771.791 212.422 777.038 210.069 781.931C207.262 787.772 199.117 791.549 194.172 789.304C188.344 786.658 186.335 780.564 189.242 774.417C192.08 768.414 198.69 766.293 205.123 769.321L205.132 769.325Z" fill="#BDF1F4"/>
<path d="M163.877 804.198C158.605 801.779 156.332 797.03 158.148 792.293C160.078 787.268 164.498 785.415 170.262 786.662C173.96 787.464 176.907 789.117 178.768 792.293C180.867 795.879 180.239 799.703 177.445 803.012C175.042 805.862 170.752 806.893 166.77 805.518C165.772 805.173 164.841 804.638 163.881 804.189L163.877 804.198Z" fill="#BDF1F4"/>
<path d="M121.966 773.395C110.526 773.395 102.826 767.605 98.8558 763.575C95.3958 764.995 91.0658 766.135 85.9658 766.985C83.9858 767.315 82.0158 767.485 80.1158 767.485C67.0358 767.485 52.2758 757.985 49.8158 740.345C47.8458 740.485 45.8258 740.425 43.7958 740.165C35.1658 739.045 30.1258 731.755 30.3158 720.655C30.5758 705.375 40.5358 688.095 54.9558 686.725C55.4158 686.685 55.8758 686.645 56.3258 686.615C57.4558 673.685 65.5358 660.425 78.9958 660.225H79.7158C87.4158 660.225 94.6658 662.095 99.9758 665.405C104.966 656.765 112.486 652.305 120.586 653.355C133.676 655.055 142.606 662.645 146.186 669.825C149.406 666.615 155.666 661.675 163.766 661.675C164.596 661.675 165.436 661.725 166.266 661.835C175.846 663.075 184.646 671.455 188.576 679.175C192.126 678.455 195.506 679.075 198.446 680.975C208.606 687.515 212.806 708.655 209.506 721.795C207.376 730.305 202.466 735.295 195.706 735.855C195.706 735.855 195.696 735.855 195.686 735.855C193.206 745.685 185.966 757.825 172.616 763.765C168.906 765.415 165.226 766.255 161.666 766.255C156.336 766.255 152.356 764.425 149.706 762.575C144.046 767.825 136.286 771.475 127.676 772.905C125.766 773.225 123.836 773.385 121.966 773.385V773.395ZM102.096 762.035C105.856 765.565 112.486 770.035 121.966 770.025C123.656 770.025 125.396 769.875 127.126 769.595C134.926 768.295 141.946 765.055 147.096 760.415C143.216 756.585 141.276 751.475 142.336 747.475C143.146 744.415 145.526 742.405 149.036 741.825C152.946 741.175 155.846 742.455 157.036 745.295C158.636 749.115 156.666 754.915 152.106 760.135C154.316 761.565 157.486 762.895 161.676 762.895C164.756 762.895 167.976 762.155 171.246 760.705C183.076 755.435 189.676 744.855 192.166 735.985C187.356 735.885 184.196 734.585 182.766 732.115C181.666 730.205 181.796 727.785 183.136 725.475C184.996 722.265 188.646 720.085 191.856 720.265C193.106 720.335 194.196 720.945 195.016 722.015C196.566 724.045 197.046 727.835 196.386 732.375C202.386 731.355 205.056 725.675 206.236 720.965C209.546 707.755 204.696 688.995 196.616 683.795C194.606 682.495 192.356 682.015 189.936 682.355C191.256 686.175 191.256 689.595 189.926 692.345C188.616 695.055 186.146 696.895 182.566 697.825C181.176 698.185 179.926 698.375 178.856 698.375C175.976 698.375 174.056 696.975 173.706 694.615C173.016 689.905 178.736 683.015 185.306 680.195C181.626 673.335 173.766 666.195 165.826 665.165C165.146 665.075 164.446 665.035 163.756 665.035C155.846 665.035 149.846 670.715 147.506 673.315C148.536 677.305 147.476 680.435 144.656 681.585C144.056 681.835 143.526 681.945 143.026 681.945C142.016 681.945 141.176 681.425 140.766 680.565C139.696 678.295 142.256 674.485 143.726 672.585C141.396 666.845 133.586 658.425 120.146 656.685C119.486 656.595 118.826 656.555 118.176 656.555C110.066 656.555 104.996 663.385 102.716 667.385C106.026 670.185 107.836 673.485 107.846 676.785C107.846 678.975 107.046 682.205 103.166 685.125C100.346 687.245 97.7558 686.975 96.4158 684.785C94.5558 681.765 95.4358 674.895 98.4258 668.395C93.6458 665.315 86.9158 663.575 79.7158 663.575H79.0458C66.4558 663.765 60.7158 677.115 59.7358 686.575C69.2758 687.005 72.7058 692.055 72.7058 696.395C72.7058 700.685 69.5758 704.035 65.5858 704.035C64.3658 704.035 63.1258 703.725 61.8958 703.105C58.3458 701.335 56.2758 696.495 56.2058 689.975C55.9058 689.995 55.6058 690.025 55.2958 690.055C42.8658 691.245 33.9458 707.155 33.7158 720.695C33.6458 725.115 34.5158 735.535 44.2558 736.805C46.0458 737.035 47.8158 737.095 49.5358 736.975C49.2758 728.915 52.7158 723.035 58.7458 721.465C60.3558 721.045 61.8158 720.835 63.0858 720.835C67.4258 720.835 69.1358 723.305 69.2958 725.625C69.6158 730.405 63.6658 737.845 53.1858 739.895C55.3958 755.635 68.5158 764.115 80.1358 764.115C81.8558 764.115 83.6358 763.965 85.4258 763.665C89.7458 762.945 93.4558 762.015 96.4858 760.885C92.1058 755.365 90.0958 749.155 91.6558 745.535C92.4658 743.655 94.1258 742.605 96.3158 742.575C96.3158 742.575 96.4858 742.575 96.4958 742.575C102.236 742.575 107.746 746.445 108.776 751.205C109.306 753.665 109.046 758.155 102.096 762.025V762.035ZM96.4858 745.955C95.2858 745.975 94.9358 746.435 94.7458 746.885C93.7758 749.125 95.4158 754.445 99.6858 759.505C104.006 757.305 106.056 754.635 105.466 751.925C104.776 748.745 100.576 745.955 96.4858 745.955ZM150.966 745.025C150.546 745.025 150.076 745.065 149.586 745.145C147.406 745.505 146.056 746.585 145.596 748.335C144.846 751.155 146.446 755.045 149.466 758.015C153.586 753.355 154.856 748.835 153.916 746.585C153.756 746.195 153.256 745.015 150.966 745.015V745.025ZM63.0658 724.225C62.0758 724.225 60.9058 724.405 59.5758 724.745C54.5358 726.065 52.8258 731.405 52.8858 736.525C61.3358 734.715 66.1058 728.805 65.9058 725.865C65.8758 725.455 65.7958 724.225 63.0658 724.225ZM191.436 723.625C189.536 723.625 187.216 725.145 186.046 727.155C185.706 727.745 184.986 729.235 185.676 730.425C186.496 731.835 189.146 732.605 192.916 732.615C193.666 728.255 193.196 725.205 192.316 724.055C192.046 723.695 191.826 723.635 191.646 723.625H191.436ZM59.5658 689.955C59.6258 695.055 61.0658 698.965 63.3958 700.125C64.1558 700.505 64.8858 700.695 65.5758 700.695C67.9258 700.695 69.3258 698.525 69.3258 696.415C69.3258 693.575 66.7458 690.285 59.5758 689.955H59.5658ZM186.666 683.285C180.756 685.755 176.686 691.725 177.036 694.135C177.076 694.395 177.166 695.015 178.846 695.015C179.626 695.015 180.586 694.865 181.696 694.575C184.266 693.905 186.006 692.665 186.866 690.885C187.806 688.945 187.726 686.285 186.666 683.275V683.285ZM101.156 670.545C98.5958 676.435 98.3558 681.545 99.2858 683.045C99.4058 683.245 99.4658 683.245 99.5258 683.245C99.6558 683.245 100.156 683.185 101.136 682.455C103.356 680.785 104.486 678.895 104.476 676.825C104.476 674.765 103.286 672.545 101.166 670.555L101.156 670.545Z" fill="#BDF1F4"/>
<path d="M23.7071 1728.05C25.7371 1729 27.5671 1730.51 29.6771 1731.11C37.8371 1733.42 46.1771 1734.38 54.6271 1733.14C67.3571 1731.26 78.0271 1725.48 86.8271 1716.09C99.8271 1702.21 103.547 1686.14 98.5071 1667.94C94.1571 1652.21 83.6771 1641.05 70.9971 1631.66C63.2571 1625.93 54.2071 1622.68 45.4071 1619C35.4871 1614.86 25.2971 1611.87 14.3871 1612.19C13.8071 1612.21 13.1671 1612.09 12.6371 1611.85C11.3171 1611.25 10.7271 1610.17 11.7271 1608.97C13.5371 1606.81 15.3171 1604.54 17.4871 1602.77C22.2271 1598.9 27.9371 1596.81 33.7171 1595.18C49.5571 1590.69 65.5971 1591.38 81.4671 1594.65C100.257 1598.52 116.377 1607.78 130.107 1621.11C150.647 1641.05 160.337 1665.6 160.867 1694.44C160.627 1697.19 160.407 1700.33 160.057 1703.47C158.727 1715.62 154.527 1726.76 147.127 1736.42C138.787 1747.29 128.087 1755.27 115.237 1760.31C99.2771 1766.58 82.8871 1769.68 65.8471 1766.4C54.2071 1764.16 43.7371 1759.14 35.1571 1750.76C29.1171 1744.86 24.9371 1737.62 21.0971 1730.19C20.7771 1729.56 21.1571 1728.57 21.2171 1727.74C22.0471 1727.84 22.9671 1727.74 23.6871 1728.07L23.7071 1728.05Z" fill="#C8FAFD"/>
<path d="M30.2371 1701.23C30.1671 1700.33 30.0471 1699.09 30.5471 1698.57C31.0371 1698.05 32.3071 1698.04 33.1771 1698.18C34.1771 1698.34 35.1071 1698.92 36.3471 1699.43C37.0871 1697.64 37.5971 1696.06 38.3871 1694.63C38.7571 1693.96 39.7171 1693.17 40.3471 1693.22C40.9471 1693.27 41.5771 1694.27 41.9971 1694.97C42.2771 1695.45 42.3471 1696.15 42.2971 1696.72C41.9271 1700.38 42.6571 1703.22 46.9671 1703.92C47.5371 1704.01 48.2671 1705.21 48.2971 1705.92C48.3171 1706.44 47.3771 1707.11 46.7471 1707.52C46.2771 1707.83 45.5971 1707.84 45.0171 1707.95C43.5071 1708.25 42.8571 1709.05 43.1371 1710.66C43.3471 1711.83 43.5271 1713.09 43.3071 1714.23C43.1171 1715.18 42.3771 1716.69 41.7871 1716.74C40.8371 1716.82 39.6171 1716.08 38.8571 1715.34C37.9971 1714.5 37.5171 1713.28 36.8171 1712.15C36.0471 1712.73 35.5471 1713.19 34.9671 1713.52C33.7571 1714.21 32.7571 1716.17 31.1271 1714.85C29.4771 1713.51 30.7971 1711.83 31.5171 1710.58C33.0971 1707.81 33.4071 1705.3 31.0671 1702.81C30.6671 1702.39 30.3071 1701.78 30.2571 1701.23H30.2371Z" fill="#C8FAFD"/>
<path d="M2.63712 1723.22C4.46712 1723.42 5.10714 1722.75 5.21714 1721.1C5.24714 1720.59 5.36709 1719.99 5.66709 1719.61C6.13709 1719.01 6.78713 1718.18 7.39713 1718.14C8.01713 1718.1 8.91711 1718.77 9.28711 1719.37C9.86711 1720.31 10.1871 1721.43 10.4571 1722.52C10.8571 1724.18 11.7171 1725.05 13.5071 1725.26C14.3971 1725.36 15.8071 1726.12 15.8971 1726.74C16.0271 1727.58 15.3171 1728.8 14.5971 1729.45C13.4771 1730.46 13.1371 1731.37 13.6971 1732.79C14.1871 1734.04 14.4671 1735.37 14.9371 1737.02C14.5571 1737.66 14.2471 1738.82 13.5671 1739.12C12.9071 1739.41 11.7971 1738.95 10.9971 1738.58C10.3471 1738.28 9.81711 1737.66 9.28711 1737.14C8.43711 1736.3 7.87709 1736.56 7.04709 1737.33C6.32709 1738 5.21713 1738.26 4.27713 1738.7C4.01713 1737.75 3.4571 1736.76 3.5571 1735.85C3.8971 1732.88 3.56714 1730.22 1.21714 1728.1C0.837137 1727.76 0.587101 1727.25 0.367101 1726.78C-0.592899 1724.68 0.38712 1723 2.63712 1723.25V1723.22Z" fill="#C8FAFD"/>
<path d="M13.2071 1701.73C13.1471 1700.3 13.9171 1699.34 16.0671 1698.97C16.7771 1699.91 17.9171 1700.78 18.0871 1701.81C18.3171 1703.23 17.3771 1704.38 15.6971 1704.35C14.0471 1704.32 13.2771 1703.19 13.2171 1701.74L13.2071 1701.73Z" fill="#C8FAFD"/>
<path d="M10.1271 1699.48C8.17714 1699.19 6.60715 1698.92 6.94715 1697.12C7.09715 1696.3 8.24714 1695.66 8.93714 1694.94C9.75714 1695.95 10.6971 1696.9 11.3071 1698.02C11.4371 1698.26 10.4071 1699.14 10.1271 1699.48Z" fill="#C8FAFD"/>
<path d="M11.0371 1705.36C11.8571 1705.54 12.4871 1706.62 13.1971 1707.32C12.5071 1707.95 11.8171 1709.08 11.1271 1709.08C10.3071 1709.09 9.47714 1708.13 8.65714 1707.59C8.67714 1707.28 8.69712 1706.97 8.70712 1706.66C9.49712 1706.18 10.3871 1705.22 11.0471 1705.36H11.0371Z" fill="#C8FAFD"/>
<path d="M55.4171 1725.5C54.1971 1726.41 53.4171 1727.4 52.8871 1727.28C52.0971 1727.1 51.0871 1726.22 50.9371 1725.47C50.8271 1724.96 51.9771 1723.69 52.6171 1723.65C53.3271 1723.6 54.1071 1724.57 55.4071 1725.49L55.4171 1725.5Z" fill="#C8FAFD"/>
<path d="M23.5272 1750.17C23.9772 1750.05 25.3072 1751.25 25.2572 1751.75C25.1672 1752.61 24.2972 1753.38 23.3272 1754.82C22.4072 1753.41 21.4472 1752.57 21.5972 1752.03C21.8072 1751.25 22.7472 1750.38 23.5372 1750.17H23.5272Z" fill="#C8FAFD"/>
<path d="M74.8136 1071.74C78.1836 1076.53 81.1736 1081.17 84.5536 1085.51C88.2836 1090.29 92.3335 1094.82 96.3335 1099.39C97.1235 1100.29 98.2136 1101.05 99.3136 1101.54C102.504 1102.96 105.694 1101.07 105.524 1097.6C105.324 1093.35 104.724 1089.1 104.024 1084.89C102.624 1076.52 101.044 1068.19 99.5036 1059.84C99.2336 1058.37 99.5036 1057.43 100.994 1056.73C108.504 1053.2 116.024 1049.68 123.434 1045.94C126.274 1044.5 129.064 1042.74 131.444 1040.63C135.154 1037.33 134.154 1033.09 129.364 1031.76C125.624 1030.72 121.744 1030.1 117.884 1029.65C110.134 1028.75 102.364 1028.06 94.5936 1027.36C93.1536 1027.23 93.1436 1026.24 92.9236 1025.32C91.0336 1017.3 89.2536 1009.25 87.2536 1001.26C86.0236 996.336 84.5236 991.476 83.0636 986.616C82.4136 984.446 80.9736 982.816 78.6136 982.666C76.3136 982.526 74.7735 984.046 73.8835 985.996C71.9535 990.216 69.9436 994.426 68.3636 998.786C65.5636 1006.54 63.0636 1014.39 60.4236 1022.2C60.2836 1022.61 60.1236 1023 59.9036 1023.57C56.7636 1022.51 53.7035 1021.37 50.5735 1020.46C43.2035 1018.31 35.8136 1016.25 28.4136 1014.22C27.4236 1013.95 26.3135 1014.01 25.2635 1014.08C22.7935 1014.26 21.0036 1016.57 21.4136 1019.03C21.9636 1022.34 23.7335 1025.04 26.0135 1027.38C33.2035 1034.74 40.4836 1042.01 47.6736 1049.36C51.3036 1053.07 51.1835 1053.1 49.8835 1058.16C46.7835 1070.21 43.7735 1082.28 40.7035 1094.34C40.3135 1095.88 40.5236 1097.35 41.7936 1098.2C43.6536 1099.45 45.7636 1100.46 48.0436 1099.21C49.1136 1098.62 50.1736 1097.89 51.0036 1097C58.4136 1089.17 65.7635 1081.29 73.1335 1073.42C73.6335 1072.89 74.1536 1072.38 74.8036 1071.71L74.8136 1071.74ZM35.5436 1025.9C35.6036 1024 36.7836 1023.49 38.4336 1024.43C46.5536 1029.04 54.6336 1033.7 62.7336 1038.33C63.7636 1038.92 63.9336 1039.75 63.3736 1040.66C62.7336 1041.68 61.8236 1041.45 60.9336 1040.94C52.8336 1036.3 44.7235 1031.68 36.6435 1027.02C36.1235 1026.72 35.7736 1026.14 35.5436 1025.9ZM83.7336 1054C84.1236 1053.59 84.6036 1052.69 85.0436 1052.71C85.6736 1052.74 86.6135 1053.31 86.8335 1053.88C87.5435 1055.78 87.9336 1057.8 88.5336 1059.74C90.6936 1066.64 92.8536 1073.53 95.0936 1080.4C95.5036 1081.66 95.2535 1082.66 94.1335 1082.92C93.5735 1083.05 92.7335 1082.12 92.0735 1081.6C91.8635 1081.44 91.8236 1081.05 91.7336 1080.75C89.4436 1073.38 87.1336 1066.02 84.8736 1058.64C84.4436 1057.23 84.1636 1055.77 83.7436 1054H83.7336ZM66.9736 1054.98C66.6436 1056.01 66.4436 1056.72 66.1836 1057.41C65.4836 1059.25 64.6736 1061.06 64.0436 1062.93C62.3336 1068.01 60.7536 1073.14 58.9736 1078.2C58.7236 1078.92 57.5436 1079.9 56.9836 1079.79C55.9036 1079.59 55.5236 1078.6 55.9636 1077.31C57.9436 1071.54 59.7936 1065.72 61.7536 1059.94C62.3436 1058.19 63.0335 1056.45 63.8935 1054.83C64.1835 1054.29 65.1336 1053.9 65.8136 1053.84C66.1836 1053.81 66.6236 1054.62 66.9836 1054.99L66.9736 1054.98ZM80.4336 1019.18C80.4336 1019.18 80.3736 1019.18 80.3436 1019.18C80.3236 1020.73 80.3336 1022.28 80.2536 1023.82C80.2236 1024.42 80.1635 1025.12 79.8335 1025.58C79.4935 1026.06 78.5435 1026.7 78.3335 1026.56C77.7435 1026.16 77.0136 1025.41 77.0036 1024.79C76.9236 1020.86 77.0436 1016.92 77.0636 1012.98C77.0636 1012.12 76.8836 1011.27 76.8436 1010.41C76.7136 1007.39 76.5836 1004.37 76.5436 1001.35C76.5436 1000.9 76.9536 1000.11 77.2536 1000.06C77.8336 999.976 78.6436 1000.15 79.0536 1000.53C79.4936 1000.94 79.7636 1001.72 79.7936 1002.35C80.0436 1007.96 80.2236 1013.57 80.4236 1019.18H80.4336ZM96.8935 1042.26C94.7735 1042.28 93.6436 1041.26 94.3736 1040.26C94.8436 1039.61 95.8336 1039.13 96.6636 1038.98C99.6936 1038.44 102.744 1038.05 105.804 1037.65C109.534 1037.16 113.254 1036.67 116.994 1036.3C117.544 1036.25 118.174 1036.87 118.764 1037.18C118.364 1037.85 118.084 1038.69 117.514 1039.15C117.054 1039.52 116.234 1039.48 115.564 1039.57C113.244 1039.87 110.914 1040.11 108.594 1040.45C104.574 1041.04 100.564 1041.69 96.9136 1042.26H96.8935Z" fill="#FFD686"/>
<path d="M78.4836 969.616C79.4836 970.886 80.2836 972.066 81.2536 973.086C82.3436 974.226 83.7236 973.856 84.0036 972.306C84.2036 971.186 84.1136 969.956 83.8736 968.826C83.4636 966.916 83.7436 965.546 85.8836 965.036C86.3536 964.926 86.8035 964.656 87.1935 964.366C88.4535 963.426 88.4536 962.046 87.1836 961.126C86.5336 960.656 85.8236 960.186 85.0636 959.986C82.7336 959.356 82.1336 957.666 81.9636 955.546C81.8636 954.256 81.7036 952.926 81.2536 951.736C80.9736 951.006 80.1536 950.126 79.4536 950.006C78.9236 949.916 78.0236 950.796 77.6136 951.446C77.1336 952.206 76.9536 953.176 76.7236 954.066C76.4536 955.126 75.9136 955.476 74.8336 955.136C74.2036 954.936 73.4836 954.856 72.8236 954.916C71.3036 955.046 70.5536 956.286 71.0736 957.706C71.2236 958.106 71.4236 958.536 71.7236 958.826C73.9136 960.946 73.6636 963.506 73.1736 966.156C72.9536 967.366 72.7336 968.646 72.9136 969.836C73.0536 970.746 73.6236 971.946 74.3636 972.306C74.9136 972.576 76.0836 971.826 76.8536 971.336C77.4836 970.926 77.9336 970.226 78.4836 969.626V969.616Z" fill="#FFD686"/>
<path d="M109.014 1010.1C109.264 1011.35 109.334 1012.33 109.674 1013.21C109.914 1013.82 110.504 1014.7 110.954 1014.71C111.574 1014.73 112.494 1014.18 112.784 1013.62C113.254 1012.72 113.404 1011.62 113.524 1010.58C113.684 1009.21 114.384 1008.66 115.714 1008.59C117.084 1008.52 118.804 1008.88 119.334 1007.09C119.824 1005.42 118.484 1004.37 117.304 1003.68C115.044 1002.34 114.974 1000.51 115.484 998.296C115.794 996.916 115.994 995.466 115.944 994.066C115.914 993.366 115.294 992.206 114.794 992.126C114.084 992.006 112.974 992.486 112.514 993.076C111.554 994.316 110.914 995.806 110.024 997.396C109.204 996.676 108.654 995.936 107.914 995.606C107.164 995.276 105.954 994.976 105.454 995.346C104.924 995.746 104.694 996.996 104.844 997.776C105.094 999.096 105.674 1000.37 106.254 1001.6C106.804 1002.76 106.614 1003.69 105.924 1004.71C104.984 1006.09 104.054 1007.49 103.344 1009C103.044 1009.65 103.014 1010.98 103.414 1011.29C104.004 1011.74 105.134 1011.78 105.934 1011.59C106.904 1011.37 107.784 1010.72 108.984 1010.12L109.014 1010.1Z" fill="#FFD686"/>
<path d="M45.3636 991.396C44.3336 991.196 43.5436 990.876 42.7736 990.926C41.9736 990.976 40.8036 991.166 40.5236 991.686C40.1836 992.316 40.3536 993.516 40.7636 994.186C41.4536 995.326 42.4436 996.326 43.4336 997.256C44.4336 998.196 44.7936 999.236 44.5836 1000.58C44.3636 1001.98 44.1536 1003.4 44.1736 1004.81C44.1736 1005.41 44.6636 1006.3 45.1636 1006.51C45.6836 1006.73 46.6236 1006.48 47.1236 1006.1C47.8336 1005.57 48.3236 1004.72 49.0736 1003.8C50.0536 1004.95 50.6536 1005.82 51.4136 1006.48C51.9436 1006.94 52.8936 1007.51 53.3236 1007.31C53.8636 1007.06 54.3536 1006.07 54.3436 1005.41C54.3236 1004.33 53.9536 1003.22 53.5936 1002.18C53.2436 1001.18 53.5036 1000.64 54.3636 1000.03C55.4736 999.246 57.1536 998.746 56.9736 996.966C56.7736 995.066 54.9836 994.636 53.5836 994.216C51.8236 993.696 51.1136 992.676 50.8636 990.976C50.6536 989.576 50.3636 988.146 49.8036 986.856C49.4936 986.156 48.5436 985.296 47.8936 985.306C47.2536 985.316 46.3136 986.236 46.0736 986.946C45.6336 988.256 45.6036 989.716 45.3636 991.386V991.396Z" fill="#FFD686"/>
<path d="M35.5335 1025.9C35.7635 1026.14 36.1135 1026.72 36.6335 1027.02C44.7235 1031.68 52.8236 1036.31 60.9236 1040.94C61.8136 1041.45 62.7236 1041.68 63.3636 1040.66C63.9336 1039.75 63.7535 1038.92 62.7235 1038.33C54.6235 1033.7 46.5336 1029.04 38.4236 1024.43C36.7736 1023.49 35.5935 1024 35.5335 1025.9Z" fill="#B8943D"/>
<path d="M83.7236 1054C84.1536 1055.77 84.4236 1057.23 84.8536 1058.64C87.1136 1066.02 89.4236 1073.38 91.7136 1080.75C91.8036 1081.04 91.8436 1081.43 92.0536 1081.6C92.7136 1082.12 93.5536 1083.05 94.1136 1082.92C95.2336 1082.65 95.4836 1081.65 95.0736 1080.4C92.8336 1073.53 90.6636 1066.64 88.5136 1059.74C87.9036 1057.8 87.5136 1055.78 86.8136 1053.88C86.6036 1053.31 85.6636 1052.74 85.0236 1052.71C84.5836 1052.69 84.1036 1053.59 83.7136 1054H83.7236Z" fill="#B8943D"/>
<path d="M66.9636 1054.98C66.6036 1054.61 66.1636 1053.8 65.7936 1053.83C65.1136 1053.89 64.1636 1054.28 63.8736 1054.82C63.0136 1056.45 62.3236 1058.18 61.7336 1059.93C59.7736 1065.71 57.9235 1071.53 55.9435 1077.3C55.5035 1078.58 55.8836 1079.58 56.9636 1079.78C57.5336 1079.89 58.7036 1078.9 58.9536 1078.19C60.7336 1073.13 62.3136 1068 64.0236 1062.92C64.6536 1061.05 65.4636 1059.24 66.1636 1057.4C66.4236 1056.71 66.6236 1056 66.9536 1054.97L66.9636 1054.98Z" fill="#B8943D"/>
<path d="M80.4236 1019.19C80.2236 1013.58 80.0436 1007.97 79.7936 1002.36C79.7636 1001.73 79.4936 1000.95 79.0536 1000.54C78.6436 1000.15 77.8336 999.986 77.2536 1000.07C76.9536 1000.11 76.5336 1000.91 76.5436 1001.36C76.5836 1004.38 76.7236 1007.4 76.8436 1010.42C76.8836 1011.28 77.0636 1012.13 77.0636 1012.99C77.0436 1016.93 76.9336 1020.86 77.0036 1024.8C77.0136 1025.42 77.7436 1026.17 78.3336 1026.57C78.5436 1026.71 79.4936 1026.07 79.8336 1025.59C80.1636 1025.13 80.2236 1024.43 80.2536 1023.83C80.3236 1022.28 80.3136 1020.74 80.3436 1019.19C80.3736 1019.19 80.4036 1019.19 80.4336 1019.19H80.4236Z" fill="#B8943D"/>
<path d="M96.8835 1042.26C100.534 1041.69 104.544 1041.04 108.564 1040.45C110.884 1040.11 113.214 1039.87 115.534 1039.57C116.204 1039.48 117.024 1039.52 117.484 1039.15C118.054 1038.69 118.334 1037.85 118.734 1037.18C118.144 1036.87 117.524 1036.24 116.964 1036.3C113.224 1036.67 109.504 1037.16 105.774 1037.65C102.724 1038.05 99.6635 1038.44 96.6335 1038.98C95.8035 1039.13 94.8136 1039.61 94.3436 1040.26C93.6236 1041.27 94.7436 1042.28 96.8636 1042.26H96.8835Z" fill="#B8943D"/>
<path d="M329.149 1436.38C370.872 1436.38 392.099 1429.47 395.944 1414.63C399.074 1402.57 396.977 1391.02 390.033 1382.08C384.043 1374.34 375.003 1369.54 366.455 1369.54C363.976 1369.54 361.641 1369.94 359.48 1370.73C352.648 1358.21 341.828 1343.97 327.878 1343.97C326.273 1343.97 324.653 1344.17 323.048 1344.55C316.756 1324.4 302.52 1318.08 282.517 1327.05C275.415 1330.25 269.282 1333.39 264.245 1336.43C259.224 1324.42 248.357 1312.28 231.896 1312.28C227.4 1312.28 222.665 1313.18 217.819 1314.98C205.935 1319.36 197.085 1326.08 192.159 1334.46C186.376 1334.28 180.513 1337.17 174.857 1343.1C163.64 1354.86 155.044 1368.13 151.008 1379.82C147.878 1378.34 144.605 1377.56 141.428 1377.56C135.708 1377.56 130.497 1379.95 125.937 1384.66C118.437 1392.39 118.771 1398.79 120.376 1402.79C125.873 1416.57 155.33 1425.91 199.166 1427.79C212.481 1428.36 228.862 1429.8 246.212 1431.34C272.968 1433.71 303.283 1436.4 329.149 1436.4V1436.38ZM366.455 1372.92C373.986 1372.92 381.994 1377.23 387.348 1384.14C393.624 1392.24 395.515 1402.76 392.655 1413.77C389.287 1426.71 368.521 1433 329.149 1432.98C303.426 1432.98 273.19 1430.31 246.514 1427.94C229.116 1426.4 212.703 1424.96 199.309 1424.39C157.491 1422.59 128.447 1413.84 123.537 1401.52C121.758 1397.06 123.379 1392.16 128.383 1387.02C134.596 1380.61 142.413 1379.31 149.992 1383.09C148.006 1390.24 148.244 1395.71 150.675 1399C152.359 1401.27 154.965 1402.36 158.397 1402.05C162.766 1401.67 163.973 1399.08 164.323 1397.57C165.372 1392.83 160.827 1385.84 154.043 1381.5C157.809 1370.25 166.436 1356.89 177.335 1345.45C181.737 1340.84 186.122 1338.3 190.428 1337.91C186.71 1346.44 186.98 1356.19 191.27 1363.41C194.241 1368.4 198.626 1371.26 203.297 1371.26C204.044 1371.26 204.791 1371.18 205.553 1371.03C210.479 1370.05 213.259 1365.58 212.957 1359.07C212.497 1349.23 205.521 1337.68 195.845 1335.03C200.501 1327.86 208.461 1322.06 219.043 1318.17C223.523 1316.52 227.861 1315.69 231.944 1315.69C246.974 1315.69 256.873 1327.13 261.369 1338.29C248.595 1346.66 246.895 1352.59 247.753 1356.13C248.706 1360.01 253.075 1362.56 259.749 1363.14C259.955 1363.15 260.162 1363.17 260.368 1363.17C262.497 1363.17 264.309 1362.2 265.58 1360.39C268.392 1356.38 268.328 1348.19 265.484 1339.7C270.489 1336.63 276.686 1333.42 283.931 1330.18C301.996 1322.08 314.103 1327.23 319.838 1345.61C317.503 1346.53 315.167 1347.85 312.863 1349.55C300.185 1358.91 299.517 1366.89 301.186 1371.94C303.569 1379.15 312.307 1383.98 318.98 1383.98C323.461 1383.98 326.369 1381.71 326.575 1378.06C326.798 1374.07 327.211 1360.51 324.001 1347.85C325.304 1347.55 326.623 1347.41 327.91 1347.41C340.144 1347.41 350.058 1360.56 356.445 1372.24C353.744 1373.86 351.536 1376.16 349.868 1379.1C346.626 1384.84 346.324 1390.5 348.994 1395.04C351.472 1399.27 356.525 1402.21 361.307 1402.21C364.294 1402.21 366.662 1401.06 367.996 1399C369.14 1397.22 369.982 1393.94 367.456 1388.45C367.424 1388.3 365.216 1381.8 361.117 1373.78C362.785 1373.23 364.58 1372.94 366.503 1372.94L366.455 1372.92ZM358.002 1375.2C362.006 1383.06 364.231 1389.61 364.262 1389.67C365.804 1393.04 366.074 1395.63 365.105 1397.14C364.183 1398.57 362.308 1398.79 361.275 1398.79C358.304 1398.79 354.11 1397.07 351.901 1393.29C349.836 1389.78 350.154 1385.43 352.807 1380.72C354.142 1378.36 355.889 1376.51 358.002 1375.2ZM153.01 1384.9C158.381 1388.65 161.606 1394.01 160.97 1396.84C160.875 1397.23 160.605 1398.46 158.079 1398.68C155.902 1398.88 154.361 1398.31 153.376 1396.99C151.723 1394.77 151.612 1390.43 152.994 1384.92L153.01 1384.9ZM320.728 1348.85C323.763 1360.98 323.366 1373.99 323.159 1377.83C323.032 1380.07 320.808 1380.55 318.965 1380.55C313.594 1380.55 306.286 1376.56 304.395 1370.83C302.504 1365.11 306.127 1358.69 314.865 1352.24C316.82 1350.79 318.79 1349.66 320.728 1348.85ZM194.05 1338.08C203.138 1339.88 209.144 1351.33 209.509 1359.21C209.637 1362.01 209.208 1366.82 204.838 1367.7C204.298 1367.81 203.774 1367.85 203.249 1367.85C199.802 1367.85 196.497 1365.6 194.145 1361.66C191.127 1356.61 189.379 1347.49 194.034 1338.08H194.05ZM262.497 1341.56C264.96 1349.38 264.563 1355.84 262.767 1358.42C262.132 1359.32 261.353 1359.75 260.336 1359.75C254.95 1359.31 251.598 1357.65 251.01 1355.3C250.2 1352.01 254.474 1346.95 262.497 1341.56Z" fill="#BDF1F4"/>
<path d="M96.8716 1304.08C103.272 1304.08 108.052 1297.35 106.422 1290.4C105.062 1284.58 101.422 1280.78 95.5716 1279.43C92.3116 1278.68 89.5016 1280.04 87.3316 1282.47C85.3016 1284.75 83.9216 1287.33 85.1816 1290.53C86.3416 1293.5 87.3416 1296.54 88.7416 1299.39C90.3416 1302.67 93.3016 1304.01 96.8716 1304.07V1304.08Z" fill="#D8E8E8"/>
<path d="M114.522 1323.22C114.932 1324.25 115.432 1325.83 116.162 1327.29C118.342 1331.63 130.092 1334.42 134.402 1331.79C139.522 1328.68 140.672 1321.56 136.502 1317.22C132.572 1313.12 124.482 1311.72 119.522 1314.29C116.652 1315.78 114.402 1319.52 114.512 1323.21L114.522 1323.22Z" fill="#D8E8E8"/>
<path d="M102.362 1329.01C103.382 1323.54 96.6716 1318.39 89.8516 1318.29C84.5316 1318.22 80.2316 1322.53 80.3216 1327.64C80.4316 1333.51 86.2116 1338.23 93.2116 1338.17C98.3716 1338.13 102.352 1334.14 102.362 1329V1329.01Z" fill="#D8E8E8"/>
</svg>
