<svg width="337" height="818" viewBox="0 0 337 818" fill="none" xmlns="http://www.w3.org/2000/svg">
<path d="M44.8956 90.9379C44.8956 90.9379 44.9656 90.9379 44.9956 90.9379C47.0456 90.8779 48.5656 89.1479 48.5756 87.1479C48.5756 79.1479 48.6556 71.1379 48.6356 63.1379C48.6056 53.2879 48.3456 43.4479 48.1756 33.5979C48.0056 23.9079 47.6256 14.2079 47.9556 4.51788C47.9556 4.46788 47.9556 4.41788 47.9656 4.35788C48.0456 3.94788 48.0556 3.52788 47.9856 3.08788C47.6656 1.13788 45.7256 -0.312116 43.7456 0.0578841C42.5056 0.287884 41.3356 1.13788 40.9056 2.35788C40.7156 2.90788 40.6356 3.45788 40.6156 4.03788C40.5656 5.20788 40.5356 6.37788 40.5156 7.54788C40.4656 9.87788 40.4756 12.2179 40.4856 14.5579C40.5256 19.2579 40.6356 23.9679 40.7256 28.6679C40.9056 38.5579 41.1956 48.4379 41.2556 58.3179C41.3156 67.9979 41.2156 77.6779 41.2156 87.3579C41.2156 89.3279 42.9856 90.9279 44.9156 90.9279L44.8956 90.9379ZM47.7956 4.93788C47.7956 4.93788 47.7756 5.00788 47.7656 5.04788C47.6956 5.19788 47.6256 5.33788 47.5656 5.47788C47.5356 5.50788 47.5156 5.54788 47.4856 5.58788C47.6156 5.38788 47.7156 5.16788 47.8056 4.93788H47.7956Z" fill="#F9CDED"/>
<path d="M4.17563 46.0179C4.60563 46.0179 5.03564 45.9879 5.43564 45.9679C6.41564 45.9079 7.38564 45.8379 8.36564 45.7779C10.5456 45.6379 12.7356 45.5279 14.9256 45.4379C19.4956 45.2579 24.0556 45.0279 28.6256 44.7379C38.6456 44.0979 48.6456 43.3679 58.6656 42.7279C68.4656 42.1079 78.2756 41.5679 88.0956 41.2979C90.1056 41.2479 91.7256 39.5079 91.6756 37.5079C91.6156 35.4979 89.8856 33.8879 87.8756 33.9379C79.6456 34.1579 71.4256 34.5579 63.2056 35.0679C53.0556 35.6879 42.9156 36.4379 32.7656 37.0879C27.7756 37.4079 22.7856 37.7379 17.7956 37.9379C15.3656 38.0379 12.9356 38.1279 10.5056 38.2579C9.26564 38.3279 8.03564 38.4079 6.79564 38.4879C6.01564 38.5379 5.22564 38.6079 4.43564 38.6179C3.73564 38.5079 2.96564 38.6379 2.34564 38.9179C1.47564 39.3079 0.775633 40.0379 0.425633 40.9279C0.0656333 41.8479 0.0856368 42.8879 0.495637 43.7879C0.905637 44.6979 1.62564 45.2879 2.50564 45.6979C3.01564 45.9379 3.59564 45.9979 4.18564 45.9979L4.17563 46.0179Z" fill="#F9CDED"/>
<path d="M23.0056 64.3279C23.0056 64.3279 23.0756 64.3279 23.1056 64.3279C24.0956 64.2979 24.9556 63.8679 25.6556 63.1979C26.4956 62.3979 27.3356 61.5979 28.1756 60.8079C31.7056 57.4579 35.2556 54.1279 38.7856 50.7779C42.3856 47.3779 46.0356 44.0179 49.6156 40.6079C53.2056 37.1879 56.7256 33.7079 60.2856 30.2579C62.0756 28.5279 63.8556 26.7879 65.5956 25.0179C66.4356 24.1679 67.2656 23.2979 68.0956 22.4379C68.6956 21.8079 69.2856 21.1679 69.9056 20.5579C71.1356 19.6579 71.7456 18.0379 71.2856 16.5179C70.7056 14.5979 68.6056 13.4779 66.6856 14.0579C65.8556 14.3079 65.2056 14.8479 64.5956 15.4479C63.9756 16.0679 63.3756 16.7179 62.7656 17.3479C59.3856 20.8779 55.8756 24.2679 52.3756 27.6779C48.8056 31.1679 45.2256 34.6479 41.5756 38.0679C34.4756 44.7279 27.3656 51.3879 20.3256 58.1079C18.8756 59.4979 19.0356 61.9679 20.4456 63.3079C21.1356 63.9579 22.0556 64.3279 23.0056 64.3279Z" fill="#F9CDED"/>
<path d="M67.2756 67.2179C68.2956 67.2179 69.3256 66.8179 70.0256 66.0879C70.7056 65.3779 71.0756 64.4179 71.0456 63.4279C71.0156 62.4279 70.5756 61.5979 69.9056 60.8779C69.6056 60.5479 69.2956 60.2179 68.9956 59.8979C65.6656 56.2779 62.3456 52.6279 59.0056 49.0179C58.1656 48.1079 57.3256 47.1979 56.4856 46.2879C56.0756 45.8479 55.6756 45.4079 55.2656 44.9679C55.1656 44.8579 55.0756 44.7579 54.9756 44.6479C54.6556 44.2579 54.2856 43.8979 53.9556 43.5379C50.5256 39.8079 47.0756 36.0879 43.4756 32.5179C41.7256 30.7879 39.9356 29.1079 38.1856 27.3879C36.4956 25.7179 34.8356 24.0379 33.1556 22.3679C31.4656 20.6979 29.7456 19.0479 28.0056 17.4279C26.4256 15.9579 24.7956 14.5179 23.3156 12.9379C23.2056 12.8179 23.0956 12.6979 22.9856 12.5679C22.0256 11.1279 20.0056 10.5779 18.4156 11.2979C16.5456 12.1379 15.7956 14.3079 16.5656 16.1679C16.7356 16.5779 17.0156 16.9179 17.2956 17.2479C17.7156 17.7279 18.1456 18.1979 18.5956 18.6579C19.5156 19.5879 20.4756 20.4779 21.4356 21.3679C23.5256 23.3179 25.6256 25.2779 27.6656 27.2879C29.3856 28.9879 31.0756 30.7079 32.7956 32.4079C34.5756 34.1579 36.3856 35.8779 38.1756 37.6279C41.7056 41.0779 45.0456 44.7079 48.3956 48.3379C48.3656 48.3079 48.3456 48.2779 48.3156 48.2479C48.6856 48.6579 49.0656 49.0679 49.4456 49.4679C49.4656 49.4979 49.4956 49.5179 49.5156 49.5379C52.1856 52.4279 54.8556 55.3179 57.5256 58.2079C57.5156 58.1979 57.4956 58.1779 57.4856 58.1679C59.9356 60.8379 62.3656 63.5379 64.8356 66.1979C65.4756 66.8879 66.3856 67.2179 67.2956 67.2179H67.2756Z" fill="#F9CDED"/>
<path d="M296.897 348.32C295.097 351.36 296.117 355.21 297.017 358.64C300.137 370.61 301.057 383.1 299.767 395.41C299.527 397.49 299.087 399.4 298.417 401.12C296.677 405.62 293.597 408.89 289.677 411.14C289.347 411.32 288.997 411.52 288.637 411.69C288.257 411.92 287.847 412.1 287.417 412.27C286.137 412.83 284.797 413.3 283.437 413.7C283.027 413.82 282.587 413.92 282.147 414.02C278.777 414.81 275.127 415.1 271.457 414.98C260.937 414.56 254.777 407.82 246.977 401.7C244.177 399.5 230.317 386.63 221.427 379.68C219.407 378.1 217.637 376.81 216.327 376.03C215.207 375.35 214.417 375.06 214.077 375.23C208.457 378.29 202.797 381.28 197.117 384.25C193.467 386.14 189.617 388.05 185.707 389.58C178.727 392.24 171.477 393.67 164.417 391.69C160.117 390.47 155.857 387.53 155.007 383.14C152.477 370.39 162.117 352.52 167.817 341.67C169.747 338.01 171.797 334.46 173.967 330.96C173.027 329.51 172.087 328.1 171.227 326.61C163.607 313.78 153.457 292.64 158.097 277.43C159.887 271.52 164.237 267.92 169.987 265.87C185.917 260.17 212.517 266.4 224.317 268.12C232.717 258.2 240.787 248.07 247.807 237.18C252.067 230.58 257.457 222.82 265.317 223.09C277.827 223.54 282.757 241.18 284.787 250.95C287.097 261.95 289.127 273.05 290.837 284.23C303.357 288.52 315.837 294.57 326.647 302.3C330.467 305.08 334.337 308.35 335.667 312.88C337.197 318.12 334.827 323.89 331.047 327.86C327.247 331.8 322.227 334.32 317.287 336.73C312.417 339.14 307.537 341.54 302.627 343.96C300.457 345.03 298.137 346.24 296.897 348.32Z" fill="#FFD686"/>
<path d="M224.477 316.11C223.827 319.92 220.217 322.48 216.397 321.84C212.577 321.2 210.007 317.59 210.657 313.78C211.297 309.97 214.917 307.41 218.737 308.05C222.557 308.69 225.127 312.3 224.477 316.11Z" fill="#B8943D"/>
<path d="M278.717 325.26C278.077 329.07 274.457 331.63 270.637 330.99C266.817 330.35 264.247 326.74 264.897 322.93C265.537 319.12 269.157 316.56 272.977 317.2C276.797 317.84 279.367 321.45 278.717 325.26Z" fill="#B8943D"/>
<path d="M258.977 322.93C258.207 320.74 255.707 320.36 253.907 321.39C252.967 321.93 252.557 322.87 252.097 323.79C251.977 324.03 251.847 324.26 251.717 324.49C251.667 324.56 251.577 324.7 251.507 324.8C251.187 325.23 250.827 325.63 250.447 326.02C250.347 326.11 250.107 326.34 250.037 326.39C249.787 326.59 249.527 326.79 249.257 326.97C249.037 327.12 248.817 327.25 248.597 327.39C248.567 327.39 248.147 327.63 248.057 327.66C247.517 327.9 246.957 328.09 246.387 328.26C246.317 328.28 246.297 328.29 246.297 328.29C246.257 328.29 246.237 328.29 246.137 328.31C245.817 328.36 245.497 328.41 245.177 328.44C244.927 328.46 244.677 328.47 244.427 328.48C244.457 328.47 243.867 328.46 243.817 328.45C243.227 328.38 242.647 328.27 242.077 328.13C242.067 328.13 242.077 328.13 242.057 328.13C241.927 328.09 241.807 328.04 241.677 327.99C241.427 327.89 241.177 327.79 240.937 327.67C239.987 327.22 239.157 326.66 238.217 325.68C236.977 324.38 235.947 322.19 235.717 320.11C235.577 318.87 234.527 317.89 233.277 317.86C232.147 317.84 230.757 318.67 230.697 319.94C230.517 323.51 231.587 326.89 233.907 329.66C236.137 332.33 239.227 334.43 242.727 334.96C246.327 335.51 249.897 334.6 252.997 332.76C254.437 331.9 255.767 330.73 256.827 329.44C258.297 327.66 259.807 325.28 258.977 322.93Z" fill="#B8943D"/>
<path d="M225.987 336.43C225.377 339.57 217.867 340.74 209.217 339.06C200.567 337.38 194.057 333.47 194.677 330.33C195.287 327.19 202.797 326.02 211.447 327.7C220.097 329.38 226.607 333.29 225.987 336.43Z" fill="#DF9E8D"/>
<path d="M289.607 347.89C288.997 351.03 281.487 352.2 272.837 350.52C264.187 348.83 257.677 344.93 258.297 341.79C258.907 338.65 266.417 337.48 275.067 339.16C283.717 340.84 290.227 344.75 289.607 347.89Z" fill="#DF9E8D"/>
<path d="M123.57 327.65C115.49 324.17 106.35 323.51 98.5803 319.31C98.6303 319.21 98.6703 319.11 98.7003 318.99C98.7903 318.63 98.7303 318.28 98.5603 317.99C98.5603 317.97 98.5603 317.95 98.5603 317.93C98.5903 317.46 98.5803 316.99 98.5903 316.53C98.6003 315.65 98.5903 314.76 98.5703 313.88C98.5303 312.01 98.4103 310.14 98.2303 308.28C97.8703 304.6 97.2603 300.95 96.3903 297.36C96.1003 296.15 94.6303 296.15 93.9803 297.01C89.2803 303.16 84.9503 309.59 81.0303 316.27C75.8703 313.01 70.6503 309.83 64.9503 307.6C63.8503 307.17 62.4503 306.79 61.4603 307.7C60.2903 308.78 61.1103 310.35 61.6603 311.51C62.9903 314.31 64.7603 316.9 66.3803 319.54C68.3403 322.72 70.3003 325.9 72.2603 329.08C72.2803 329.11 72.2903 329.13 72.3103 329.15C70.4103 332.99 68.3003 336.73 65.9603 340.32C64.7903 342.11 63.5703 343.87 62.3003 345.59C61.0403 347.29 59.7803 348.94 59.1803 351C58.9603 351.74 59.5903 352.76 60.4403 352.66C62.4603 352.43 64.3003 351.75 66.1303 350.89C68.1503 349.94 70.1503 348.93 72.1703 347.95C75.5603 346.3 78.9403 344.64 82.3303 342.99C85.2703 350.41 88.3203 357.78 91.5003 365.1C91.9903 366.24 93.5903 365.79 93.9303 364.81C96.4903 357.35 99.0003 349.88 101.47 342.39C108.43 337.57 115.82 333.41 123.54 329.95C124.39 329.57 124.48 328.05 123.58 327.67L123.57 327.65Z" fill="#FFD686"/>
<path d="M194.132 769.325C199.36 771.791 201.422 777.038 199.069 781.931C196.262 787.772 188.117 791.549 183.172 789.304C177.344 786.658 175.335 780.564 178.242 774.417C181.08 768.414 187.69 766.293 194.123 769.321L194.132 769.325Z" fill="#BDF1F4"/>
<path d="M152.877 804.198C147.605 801.779 145.332 797.03 147.148 792.293C149.078 787.268 153.498 785.415 159.262 786.662C162.96 787.464 165.907 789.117 167.768 792.293C169.867 795.879 169.239 799.703 166.445 803.012C164.042 805.862 159.752 806.893 155.77 805.518C154.772 805.173 153.841 804.638 152.881 804.189L152.877 804.198Z" fill="#BDF1F4"/>
<path d="M110.966 773.395C99.5257 773.395 91.8257 767.605 87.8557 763.575C84.3957 764.995 80.0657 766.135 74.9657 766.985C72.9857 767.315 71.0157 767.485 69.1157 767.485C56.0357 767.485 41.2757 757.985 38.8157 740.345C36.8457 740.485 34.8257 740.425 32.7957 740.165C24.1657 739.045 19.1257 731.755 19.3157 720.655C19.5757 705.375 29.5357 688.095 43.9557 686.725C44.4157 686.685 44.8757 686.645 45.3257 686.615C46.4557 673.685 54.5357 660.425 67.9957 660.225H68.7157C76.4157 660.225 83.6657 662.095 88.9757 665.405C93.9657 656.765 101.486 652.305 109.586 653.355C122.676 655.055 131.606 662.645 135.186 669.825C138.406 666.615 144.666 661.675 152.766 661.675C153.596 661.675 154.436 661.725 155.266 661.835C164.846 663.075 173.646 671.455 177.576 679.175C181.126 678.455 184.506 679.075 187.446 680.975C197.606 687.515 201.806 708.655 198.506 721.795C196.376 730.305 191.466 735.295 184.706 735.855C184.706 735.855 184.696 735.855 184.686 735.855C182.206 745.685 174.966 757.825 161.616 763.765C157.906 765.415 154.226 766.255 150.666 766.255C145.336 766.255 141.356 764.425 138.706 762.575C133.046 767.825 125.286 771.475 116.676 772.905C114.766 773.225 112.836 773.385 110.966 773.385V773.395ZM91.0957 762.035C94.8557 765.565 101.486 770.035 110.966 770.025C112.656 770.025 114.396 769.875 116.126 769.595C123.926 768.295 130.946 765.055 136.096 760.415C132.216 756.585 130.276 751.475 131.336 747.475C132.146 744.415 134.526 742.405 138.036 741.825C141.946 741.175 144.846 742.455 146.036 745.295C147.636 749.115 145.666 754.915 141.106 760.135C143.316 761.565 146.486 762.895 150.676 762.895C153.756 762.895 156.976 762.155 160.246 760.705C172.076 755.435 178.676 744.855 181.166 735.985C176.356 735.885 173.196 734.585 171.766 732.115C170.666 730.205 170.796 727.785 172.136 725.475C173.996 722.265 177.646 720.085 180.856 720.265C182.106 720.335 183.196 720.945 184.016 722.015C185.566 724.045 186.046 727.835 185.386 732.375C191.386 731.355 194.056 725.675 195.236 720.965C198.546 707.755 193.696 688.995 185.616 683.795C183.606 682.495 181.356 682.015 178.936 682.355C180.256 686.175 180.256 689.595 178.926 692.345C177.616 695.055 175.146 696.895 171.566 697.825C170.176 698.185 168.926 698.375 167.856 698.375C164.976 698.375 163.056 696.975 162.706 694.615C162.016 689.905 167.736 683.015 174.306 680.195C170.626 673.335 162.766 666.195 154.826 665.165C154.146 665.075 153.446 665.035 152.756 665.035C144.846 665.035 138.846 670.715 136.506 673.315C137.536 677.305 136.476 680.435 133.656 681.585C133.056 681.835 132.526 681.945 132.026 681.945C131.016 681.945 130.176 681.425 129.766 680.565C128.696 678.295 131.256 674.485 132.726 672.585C130.396 666.845 122.586 658.425 109.146 656.685C108.486 656.595 107.826 656.555 107.176 656.555C99.0657 656.555 93.9957 663.385 91.7157 667.385C95.0257 670.185 96.8357 673.485 96.8457 676.785C96.8457 678.975 96.0457 682.205 92.1657 685.125C89.3457 687.245 86.7557 686.975 85.4157 684.785C83.5557 681.765 84.4357 674.895 87.4257 668.395C82.6457 665.315 75.9157 663.575 68.7157 663.575H68.0457C55.4557 663.765 49.7157 677.115 48.7357 686.575C58.2757 687.005 61.7057 692.055 61.7057 696.395C61.7057 700.685 58.5757 704.035 54.5857 704.035C53.3657 704.035 52.1257 703.725 50.8957 703.105C47.3457 701.335 45.2757 696.495 45.2057 689.975C44.9057 689.995 44.6057 690.025 44.2957 690.055C31.8657 691.245 22.9457 707.155 22.7157 720.695C22.6457 725.115 23.5157 735.535 33.2557 736.805C35.0457 737.035 36.8157 737.095 38.5357 736.975C38.2757 728.915 41.7157 723.035 47.7457 721.465C49.3557 721.045 50.8157 720.835 52.0857 720.835C56.4257 720.835 58.1357 723.305 58.2957 725.625C58.6157 730.405 52.6657 737.845 42.1857 739.895C44.3957 755.635 57.5157 764.115 69.1357 764.115C70.8557 764.115 72.6357 763.965 74.4257 763.665C78.7457 762.945 82.4557 762.015 85.4857 760.885C81.1057 755.365 79.0957 749.155 80.6557 745.535C81.4657 743.655 83.1257 742.605 85.3157 742.575C85.3157 742.575 85.4857 742.575 85.4957 742.575C91.2357 742.575 96.7457 746.445 97.7757 751.205C98.3057 753.665 98.0457 758.155 91.0957 762.025V762.035ZM85.4857 745.955C84.2857 745.975 83.9357 746.435 83.7457 746.885C82.7757 749.125 84.4157 754.445 88.6857 759.505C93.0057 757.305 95.0557 754.635 94.4657 751.925C93.7757 748.745 89.5757 745.955 85.4857 745.955ZM139.966 745.025C139.546 745.025 139.076 745.065 138.586 745.145C136.406 745.505 135.056 746.585 134.596 748.335C133.846 751.155 135.446 755.045 138.466 758.015C142.586 753.355 143.856 748.835 142.916 746.585C142.756 746.195 142.256 745.015 139.966 745.015V745.025ZM52.0657 724.225C51.0757 724.225 49.9057 724.405 48.5757 724.745C43.5357 726.065 41.8257 731.405 41.8857 736.525C50.3357 734.715 55.1057 728.805 54.9057 725.865C54.8757 725.455 54.7957 724.225 52.0657 724.225ZM180.436 723.625C178.536 723.625 176.216 725.145 175.046 727.155C174.706 727.745 173.986 729.235 174.676 730.425C175.496 731.835 178.146 732.605 181.916 732.615C182.666 728.255 182.196 725.205 181.316 724.055C181.046 723.695 180.826 723.635 180.646 723.625H180.436ZM48.5657 689.955C48.6257 695.055 50.0657 698.965 52.3957 700.125C53.1557 700.505 53.8857 700.695 54.5757 700.695C56.9257 700.695 58.3257 698.525 58.3257 696.415C58.3257 693.575 55.7457 690.285 48.5757 689.955H48.5657ZM175.666 683.285C169.756 685.755 165.686 691.725 166.036 694.135C166.076 694.395 166.166 695.015 167.846 695.015C168.626 695.015 169.586 694.865 170.696 694.575C173.266 693.905 175.006 692.665 175.866 690.885C176.806 688.945 176.726 686.285 175.666 683.275V683.285ZM90.1557 670.545C87.5957 676.435 87.3557 681.545 88.2857 683.045C88.4057 683.245 88.4657 683.245 88.5257 683.245C88.6557 683.245 89.1557 683.185 90.1357 682.455C92.3557 680.785 93.4857 678.895 93.4757 676.825C93.4757 674.765 92.2857 672.545 90.1657 670.555L90.1557 670.545Z" fill="#BDF1F4"/>
</svg>
