<svg width="119" height="46" viewBox="0 0 119 46" fill="none" xmlns="http://www.w3.org/2000/svg">
<path d="M117.973 9.89172C117.973 9.89172 117.282 5.39932 115.161 3.42067C112.472 0.824731 109.456 0.811546 108.074 0.659258C98.1756 0 83.3287 0 83.3287 0H83.2978C83.2978 0 68.4497 0 58.5518 0.659258C57.1689 0.811546 54.1552 0.824731 51.4642 3.42067C49.3439 5.39932 48.6538 9.89172 48.6538 9.89172C48.6538 9.89172 47.9458 15.1664 47.9458 20.4418V25.3878C47.9458 30.6632 48.6538 35.9388 48.6538 35.9388C48.6538 35.9388 49.3439 40.4305 51.4642 42.4096C54.1552 45.0064 57.6902 44.9236 59.2639 45.1954C64.9225 45.6964 83.312 45.8509 83.312 45.8509C83.312 45.8509 98.1756 45.8303 108.074 45.1712C109.456 45.0187 112.471 45.0064 115.16 42.4096C117.281 40.4305 117.972 35.9388 117.972 35.9388C117.972 35.9388 118.679 30.6632 118.679 25.3878V20.4418C118.679 15.1664 117.972 9.8915 117.972 9.8915" fill="#CD201F"/>
<path d="M44.2962 37.1052H39.7959V34.693C38.0893 36.5038 36.6428 37.4179 35.066 37.4179C33.6831 37.4179 32.7218 36.8143 32.2414 35.7221C31.9494 35.0585 31.7422 34.0221 31.7422 32.4999V14.9557H36.2419V32.9387C36.347 33.5531 36.6302 33.7788 37.2015 33.7788C38.0631 33.7788 38.8424 33.086 39.7959 31.8413V14.9557H44.2962V37.1052ZM23.9248 30.5258C24.1612 32.719 23.4263 33.8067 22.029 33.8067C20.6316 33.8067 19.8975 32.719 20.1348 30.5258V21.7533C19.8975 19.5602 20.6316 18.5324 22.029 18.5324C23.427 18.5324 24.1635 19.5602 23.9269 21.7533L23.9248 30.5258ZM28.4251 22.1922C28.4251 19.8254 27.9115 18.0476 27.004 16.9291C25.8044 15.4135 23.9248 14.7931 22.029 14.7931C19.8849 14.7931 18.2518 15.4135 17.0546 16.9291C16.1322 18.0476 15.6376 19.8443 15.6376 22.2111L15.6338 30.087C15.6338 32.4405 16.0736 34.0667 16.9953 35.1749C18.1932 36.6853 20.1348 37.4852 22.029 37.4852C23.9245 37.4852 25.8994 36.6853 27.099 35.1749C28.0064 34.0667 28.4249 32.4405 28.4249 30.087L28.4251 22.1922ZM10.6596 25.043V37.105H5.92191V25.0428C5.92191 25.0428 1.01305 10.2561 0 7.49973H4.97413L8.29884 19.051L11.6067 7.49951H16.5811L10.6596 25.043Z" fill="black"/>
<path d="M104.225 21.0874C104.225 19.0371 104.832 18.478 106.264 18.478C107.686 18.478 108.252 19.0883 108.252 21.1144V23.5082L104.225 23.5126V21.0874ZM112.761 26.7979L112.76 22.3149C112.76 19.9732 112.261 18.2592 111.364 17.1507C110.163 15.6514 108.456 14.8574 106.304 14.8574C104.114 14.8574 102.407 15.6514 101.167 17.1507C100.256 18.2592 99.7249 20.069 99.7249 22.4123V30.0876C99.7249 32.4161 100.309 34.046 101.219 35.1425C102.46 36.6397 104.167 37.3875 106.41 37.3875C108.651 37.3875 110.411 36.6039 111.597 35.012C112.119 34.3097 112.455 33.5133 112.6 32.6336C112.639 32.2359 112.752 31.3298 112.752 30.0509V29.4296H108.251C108.251 31.0222 108.26 31.9693 108.22 32.1853C107.975 33.2476 107.36 33.7785 106.304 33.7785C104.832 33.7785 104.209 32.7597 104.225 30.7365V26.7979H112.761ZM92.3808 30.7455C92.3808 32.9386 91.8222 33.7794 90.5856 33.7794C89.8799 33.7794 89.0665 33.4432 88.3489 32.7789L88.3537 19.4788C89.0705 18.8239 89.8799 18.4789 90.5856 18.4789C91.8222 18.4789 92.3808 19.1228 92.3808 21.3159V30.7455ZM92.8802 14.8238C91.3024 14.8238 89.7344 15.7219 88.3489 17.3004L88.3537 7.71851H84.09V37.1058H88.3537L88.3601 34.8973C89.7928 36.5388 91.3556 37.3877 92.8802 37.3877C94.5875 37.3877 95.8353 36.5417 96.4081 34.9118C96.6936 33.9831 96.8811 32.5532 96.8811 30.5264V21.7548C96.8811 19.6788 96.5939 18.2592 96.3076 17.3779C95.7356 15.7373 94.5875 14.8238 92.8802 14.8238ZM80.5377 37.1051H76.0382V34.6929C74.3309 36.5037 72.8854 37.4178 71.3086 37.4178C69.9255 37.4178 68.9642 36.8142 68.484 35.722C68.1911 35.0584 67.9839 34.022 67.9839 32.4998V15.1754H72.4842V32.9386C72.5894 33.5531 72.8719 33.7787 73.4439 33.7787C74.3055 33.7787 75.0848 33.0859 76.0382 31.8412V15.1754H80.5379L80.5377 37.1051Z" fill="white"/>
<path d="M63.4819 37.1051H58.7451V11.8848H53.771V7.72378L68.6936 7.71851V11.885H63.4819V37.1051Z" fill="white"/>
</svg>
